<svg xmlns="http://www.w3.org/2000/svg" id="bonfire" width="81.718" height="81.654" viewBox="0 0 81.718 81.654">
    <defs>
        <style>
            .cls-2{fill:#e76f51;fill-rule:evenodd}.cls-6{fill:#3b3735}
        </style>
    </defs>
    <g id="Group_200" transform="translate(0 1.595)">
        <ellipse id="Ellipse_44" cx="4.784" cy="7.974" fill="#ffd2c6" rx="4.784" ry="7.974" transform="rotate(-15.009 243.683 32.101)"/>
        <path id="Path_821" d="M28.8 317.021c2.552-.684 5.545 2.21 6.685 6.464s-.005 8.257-2.558 8.941l32.106-8.6 29.667-7.953a2.971 2.971 0 0 0 .855-.383c1.939-1.263 2.706-4.813 1.7-8.557-1.14-4.254-4.133-7.148-6.685-6.464l-3.788 1.015-13.1 3.511-8.648 2.317-30.517 8.178z" class="cls-2" transform="translate(-24.195 -254.061)"/>
        <path id="Path_822" d="M286.522 395.186zm-.855.383L256 403.518l32.106 8.6c-2.552-.684-3.7-4.687-2.558-8.941s4.133-7.148 6.685-6.464l-5.712-1.531a2.969 2.969 0 0 1-.853.387z" class="cls-2" transform="translate(-215.158 -333.757)"/>
        <ellipse id="Ellipse_45" cx="7.974" cy="4.784" fill="#e76f51" rx="7.974" ry="4.784" transform="rotate(-74.991 84.441 -5.975)"/>
        <path id="Path_823" d="M53.322 315.491l30.521-8.178-10.568-2.832-10.228-2.74-4.747-1.271c-2.552-.684-5.545 2.21-6.685 6.464-1 3.744-.232 7.294 1.707 8.557z" class="cls-2" transform="translate(-43 -254.062)"/>
        <path id="Path_824" fill="#ff8a6c" fill-rule="evenodd" d="M186.27 210.689l10.568 2.832 8.648-2.317c2.776-11.318-2.276-18.89-6.024-22.422 1.116 9.33-6.7 14.991-6.7 14.991-2.791-2.073-3.11-6.379-3.11-6.379-3.649 3.649-4.961 7.633-3.383 13.3z" transform="translate(-155.995 -160.269)"/>
        <path id="Path_825" fill="#ffb63b" fill-rule="evenodd" d="M120.047 60.42c-1.578-5.663-.266-9.646 3.383-13.3 0 0 .319 4.306 3.11 6.379 0 0 7.814-5.662 6.7-14.991 3.748 3.532 8.8 11.1 6.024 22.422l13.1-3.511c6.324-16.937-4.075-31.235-4.075-31.235a14.4 14.4 0 0 1-7.177 9.967C145.978 14.387 129.711 10 129.711 10c7.254 13.2-5.263 12.039-5.263 26.314 0-5.84-1.754-10.207-7.1-13.795 3.943 15.923-18.359 16.993-7.533 35.16z" transform="translate(-89.772 -10.001)"/>
    </g>
    <g id="Group_201" transform="translate(.016)">
        <path id="Path_826" d="M81.256 67.249a5.7 5.7 0 0 0-3.784-4.233l-3.332-.893a7.94 7.94 0 0 0 .549-1.407 12.724 12.724 0 0 0-.1-6.66c-1.389-5.183-5.183-8.518-8.638-7.592l-.962.258a35.492 35.492 0 0 0-.566-20.169 36.758 36.758 0 0 0-4.633-9.706 1.595 1.595 0 0 0-2.859.656 12.516 12.516 0 0 1-3.351 6.539c1.126-9.475-1.95-15.288-4.952-18.6a18.966 18.966 0 0 0-8.29-5.386 1.595 1.595 0 0 0-1.813 2.308C42.093 8.856 40.516 11 37.9 14.539a26.973 26.973 0 0 0-3.226 5.224 16.847 16.847 0 0 0-6.225-6.972 1.595 1.595 0 0 0-2.434 1.709c1.575 6.36-1.55 10.046-4.859 13.948-3.791 4.472-8.034 9.479-4.192 18.355l-1.264-.34c-3.455-.926-7.25 2.409-8.638 7.592a11.7 11.7 0 0 0 .451 8.067l-3.333.893A5.7 5.7 0 0 0 .4 67.249a13.622 13.622 0 0 0 3.34 12.478 6.2 6.2 0 0 0 4.229 1.927 4.487 4.487 0 0 0 1.164-.154l31.692-8.492L72.519 81.5a4.513 4.513 0 0 0 1.172.154c3.1 0 6.233-3.145 7.466-7.746a12.727 12.727 0 0 0 .1-6.661zm-14.478-17.7c1.457-.39 3.787 1.81 4.732 5.336.074.277.137.555.189.833l-2.944.789a1.595 1.595 0 1 0 .825 3.081l2.224-.6a6.692 6.692 0 0 1-.181.85 2.681 2.681 0 0 1-1.543 2.03L12.935 77.18a12.656 12.656 0 0 0-.117-6.573 12.771 12.771 0 0 0-3.18-5.752zM23.589 30.51c2.847-3.358 6-7.08 6.043-12.6 2.4 2.566 3.432 5.675 3.432 10.005a1.595 1.595 0 0 0 3.19 0c0-5.763 2.143-8.669 4.215-11.478 2.272-3.081 4.441-6.023 2.665-11.523a16.291 16.291 0 0 1 3.233 2.785c4.139 4.657 5.283 11.288 3.4 19.709a1.595 1.595 0 0 0 2.254 1.782 16.01 16.01 0 0 0 6.942-7.5 37.34 37.34 0 0 1 2.454 5.94 31.419 31.419 0 0 1-.065 20.07l-9.817 2.63c.09-.58.163-1.157.216-1.728a1.595 1.595 0 0 0-3.176-.293 25.921 25.921 0 0 1-.449 2.934l-7.3 1.956-9.252-2.479a10.392 10.392 0 0 1 1.26-8.525 9.123 9.123 0 0 0 2.966 4.184 1.6 1.6 0 0 0 1.887.011c.3-.215 6.21-4.59 7.3-12.067.247.353.494.728.736 1.127a1.595 1.595 0 0 0 2.724-1.65 23.5 23.5 0 0 0-3.9-4.849 1.595 1.595 0 0 0-2.677 1.35 13.912 13.912 0 0 1-2.592 9.8 18.188 18.188 0 0 1-2.453 2.845 9.373 9.373 0 0 1-1.593-4.346 1.595 1.595 0 0 0-2.718-1.01c-3.585 3.586-4.994 7.51-4.345 12.21l-7.087-1.9c-4.917-8.637-1.632-12.512 2.508-17.4zM10.1 55.064l3.04.815a1.595 1.595 0 0 0 .825-3.081l-2.648-.71c1.1-1.824 2.544-2.816 3.56-2.544l19.79 5.3-23.949 6.419c-.882-1.09-1.312-3.454-.618-6.199zm-6.52 18.02a9.653 9.653 0 0 1-.113-4.958A2.681 2.681 0 0 1 5.006 66.1a1.34 1.34 0 0 1 .348-.044 3.113 3.113 0 0 1 2 1.031 9.652 9.652 0 0 1 2.381 4.35c.945 3.527.025 6.6-1.43 6.987a2.682 2.682 0 0 1-2.351-.986 9.651 9.651 0 0 1-2.381-4.35zm49.9-3.466c.025.008.049.017.074.024l4.917 1.317a1.594 1.594 0 0 0 1.107-2.975l11.327-3.035a4.456 4.456 0 0 0 .632-.222l.477.128a13.626 13.626 0 0 0-3.3 12.325l-21.726-5.822zm24.6 3.466c-.945 3.527-3.28 5.726-4.732 5.336s-2.375-3.461-1.43-6.987a9.65 9.65 0 0 1 2.381-4.35 3.112 3.112 0 0 1 2-1.031 1.347 1.347 0 0 1 .348.044 2.681 2.681 0 0 1 1.543 2.03 9.651 9.651 0 0 1-.113 4.957z" class="cls-6" transform="translate(.001 -.001)"/>
        <path id="Path_827" d="M301.967 250.476a1.6 1.6 0 1 0 1.6-1.595 1.594 1.594 0 0 0-1.6 1.595z" class="cls-6" transform="translate(-253.809 -209.19)"/>
        <path id="Path_828" d="M116.819 417.224a1.6 1.6 0 0 0 .414-.055l3.513-.941a1.595 1.595 0 1 0-.825-3.081l-3.513.941a1.595 1.595 0 0 0 .412 3.136z" class="cls-6" transform="translate(-96.848 -347.213)"/>
        <path id="Path_829" d="M268.806 372.174a1.6 1.6 0 0 0 .414-.055l3.513-.941a1.595 1.595 0 0 0-.825-3.081l-3.513.941a1.6 1.6 0 0 0 .412 3.136z" class="cls-6" transform="translate(-224.597 -309.347)"/>
    </g>
</svg>
