<svg xmlns="http://www.w3.org/2000/svg" width="89.235" height="89.316" viewBox="0 0 89.235 89.316">
    <defs>
        <style>
            .cls-1{fill:#3b3735}
        </style>
    </defs>
    <g id="destination" transform="translate(-.233)">
        <g id="Group_270" transform="translate(.233 26.847)">
            <g id="Group_269">
                <path id="Path_932" d="M22.132 153.9a21.924 21.924 0 0 0-21.9 21.9c0 7.5 3.566 15.558 10.6 23.958 1.045 1.248 2.087 2.4 3.086 3.46-4.542 1.24-7.268 3.467-7.268 6.066 0 4.6 7.976 7.085 15.48 7.085s15.48-2.483 15.48-7.085c0-2.6-2.726-4.825-7.264-6.065a71.3 71.3 0 0 0 5.615-6.678 1.31 1.31 0 1 0-2.109-1.554 70.319 70.319 0 0 1-6.765 7.816 1.309 1.309 0 0 0-.571.567c-1.891 1.858-3.482 3.237-4.385 3.99-.893-.746-2.46-2.106-4.327-3.94a1.31 1.31 0 0 0-.656-.652c-5.932-5.967-14.3-16.276-14.3-26.968a19.28 19.28 0 0 1 38.559 0c0 4.643-1.582 9.656-4.7 14.9a1.31 1.31 0 1 0 2.251 1.339c3.364-5.656 5.07-11.12 5.07-16.241A21.924 21.924 0 0 0 22.132 153.9zm-.8 56.183a1.31 1.31 0 0 0 1.6 0A66.571 66.571 0 0 0 28.2 205.4c4.417.9 6.793 2.635 6.793 3.884 0 .932-1.278 2.032-3.335 2.871a26.111 26.111 0 0 1-9.526 1.595c-7.851 0-12.861-2.645-12.861-4.465 0-1.25 2.376-2.984 6.8-3.885a66.559 66.559 0 0 0 5.259 4.685z" class="cls-1" transform="translate(-.233 -153.902)"/>
            </g>
        </g>
        <g id="Group_272" transform="translate(12.611 39.225)">
            <g id="Group_271">
                <path id="Path_933" d="M80.708 224.854a9.444 9.444 0 0 0-5.7 1.891 1.31 1.31 0 1 0 1.568 2.1 6.884 6.884 0 1 1-2.507 3.624 1.31 1.31 0 1 0-2.518-.723 9.523 9.523 0 1 0 9.153-6.891z" class="cls-1" transform="translate(-71.187 -224.854)"/>
            </g>
        </g>
        <g id="Group_274" transform="translate(55.2)">
            <g id="Group_273">
                <path id="Path_934" d="M339.336 38.05c.666-.715 1.353-1.485 2.041-2.308 5.453-6.513 8.218-12.773 8.218-18.609a17.136 17.136 0 0 0-32.921-6.67 1.31 1.31 0 0 0 2.412 1.021 14.517 14.517 0 0 1 27.889 5.649c0 10.823-11.363 21.192-14.515 23.86-.695-.587-1.788-1.548-3.07-2.8a1.308 1.308 0 0 0-.582-.579c-4.522-4.553-10.861-12.38-10.861-20.476a1.31 1.31 0 0 0-2.619 0c0 5.835 2.765 12.1 8.218 18.609.688.822 1.374 1.592 2.04 2.307-3.376 1.014-5.325 2.741-5.325 4.82 0 1.754 1.422 3.3 4.006 4.351a24.742 24.742 0 0 0 16.391 0c2.583-1.053 4.005-2.6 4.005-4.352-.002-2.079-1.952-3.807-5.327-4.823zM332.461 46c-6.2 0-9.582-2.067-9.582-3.129 0-.692 1.538-1.958 4.824-2.656a51.178 51.178 0 0 0 3.957 3.511 1.31 1.31 0 0 0 1.6 0 51.118 51.118 0 0 0 3.957-3.511 12.005 12.005 0 0 1 3.619 1.309c.754.459 1.2.963 1.2 1.347.006 1.06-3.376 3.129-9.575 3.129z" class="cls-1" transform="translate(-315.327)"/>
            </g>
        </g>
        <g id="Group_276" transform="translate(64.713 9.513)">
            <g id="Group_275">
                <path id="Path_935" d="M377.48 54.532a7.621 7.621 0 1 0 7.621 7.621 7.63 7.63 0 0 0-7.621-7.621zm0 12.623a5 5 0 1 1 5-5 5.007 5.007 0 0 1-5 5z" class="cls-1" transform="translate(-369.859 -54.532)"/>
            </g>
        </g>
        <g id="Group_278" transform="translate(52.308 41.56)">
            <g id="Group_277">
                <path id="Path_936" d="M301.789 238.239h-.6a9.881 9.881 0 0 0-1.3.086 1.31 1.31 0 1 0 .346 2.6 7.283 7.283 0 0 1 .956-.063h.6a1.31 1.31 0 0 0 0-2.62z" class="cls-1" transform="translate(-298.753 -238.239)"/>
            </g>
        </g>
        <g id="Group_280" transform="translate(47.975 80.855)">
            <g id="Group_279">
                <path id="Path_937" d="M276.951 463.5h-.006l-1.73.008a1.31 1.31 0 0 0 .006 2.619h.006l1.73-.008a1.31 1.31 0 0 0-.006-2.619z" class="cls-1" transform="translate(-273.911 -463.496)"/>
            </g>
        </g>
        <g id="Group_282" transform="translate(53.859 58.525)">
            <g id="Group_281">
                <path id="Path_938" d="M310.682 335.489h-1.73a1.31 1.31 0 1 0 0 2.619h1.73a1.31 1.31 0 1 0 0-2.619z" class="cls-1" transform="translate(-307.642 -335.489)"/>
            </g>
        </g>
        <g id="Group_284" transform="translate(46.542 43.807)">
            <g id="Group_283">
                <path id="Path_939" d="M269.114 251.541a1.31 1.31 0 0 0-1.851-.075 9.844 9.844 0 0 0-1.32 1.492 1.31 1.31 0 1 0 2.128 1.528 7.239 7.239 0 0 1 .968-1.095 1.31 1.31 0 0 0 .075-1.85z" class="cls-1" transform="translate(-265.698 -251.12)"/>
            </g>
        </g>
        <g id="Group_286" transform="translate(54.895 80.823)">
            <g id="Group_285">
                <path id="Path_940" d="M316.617 463.314h-.006l-1.73.008a1.31 1.31 0 0 0 .006 2.619h.006l1.73-.008a1.31 1.31 0 0 0-.006-2.619z" class="cls-1" transform="translate(-313.578 -463.314)"/>
            </g>
        </g>
        <g id="Group_288" transform="translate(41.055 80.886)">
            <g id="Group_287">
                <path id="Path_941" d="M237.286 463.675h-.006l-1.73.008a1.31 1.31 0 0 0 .006 2.62h.006l1.73-.008a1.31 1.31 0 0 0-.006-2.619z" class="cls-1" transform="translate(-234.246 -463.675)"/>
            </g>
        </g>
        <g id="Group_290" transform="translate(47.558 56.157)">
            <g id="Group_289">
                <path id="Path_942" d="M274.891 323.185a7.228 7.228 0 0 1-1.15-.9 1.31 1.31 0 1 0-1.816 1.888 9.845 9.845 0 0 0 1.568 1.228 1.31 1.31 0 1 0 1.4-2.215z" class="cls-1" transform="translate(-271.523 -321.919)"/>
            </g>
        </g>
        <g id="Group_292" transform="translate(44.955 49.954)">
            <g id="Group_291">
                <path id="Path_943" d="M259.349 289.139a7.238 7.238 0 0 1-.133-1.381v-.073a1.309 1.309 0 0 0-1.294-1.325h-.016a1.31 1.31 0 0 0-1.309 1.295v.1a9.861 9.861 0 0 0 .181 1.882 1.31 1.31 0 0 0 2.571-.5z" class="cls-1" transform="translate(-256.597 -286.361)"/>
            </g>
        </g>
        <g id="Group_294" transform="translate(60.779 58.525)">
            <g id="Group_293">
                <path id="Path_944" d="M350.349 335.489h-1.73a1.31 1.31 0 1 0 0 2.619h1.73a1.31 1.31 0 1 0 0-2.619z" class="cls-1" transform="translate(-347.309 -335.489)"/>
            </g>
        </g>
        <g id="Group_296" transform="translate(81.29 59.947)">
            <g id="Group_295">
                <path id="Path_945" d="M468.444 344.888a12.471 12.471 0 0 0-1.6-1.075 1.31 1.31 0 0 0-1.286 2.282 9.878 9.878 0 0 1 1.266.849 1.31 1.31 0 0 0 1.624-2.056z" class="cls-1" transform="translate(-464.888 -343.645)"/>
            </g>
        </g>
        <g id="Group_298" transform="translate(75.653 80.631)">
            <g id="Group_297">
                <path id="Path_946" d="M436.906 463.342a1.31 1.31 0 0 0-1.477-1.118 9.852 9.852 0 0 1-1.306.092h-.245a1.31 1.31 0 0 0 .006 2.619h.251a12.5 12.5 0 0 0 1.653-.117 1.31 1.31 0 0 0 1.118-1.476z" class="cls-1" transform="translate(-432.575 -462.212)"/>
            </g>
        </g>
        <g id="Group_300" transform="translate(82.167 77.672)">
            <g id="Group_299">
                <path id="Path_947" d="M473.515 445.657a1.309 1.309 0 0 0-1.852-.045 9.9 9.9 0 0 1-1.182.964 1.31 1.31 0 1 0 1.492 2.153 12.53 12.53 0 0 0 1.5-1.22 1.31 1.31 0 0 0 .042-1.852z" class="cls-1" transform="translate(-469.918 -445.25)"/>
            </g>
        </g>
        <g id="Group_302" transform="translate(86.31 71.695)">
            <g id="Group_301">
                <path id="Path_948" d="M495.671 411.01a1.31 1.31 0 0 0-1.529 1.045 9.809 9.809 0 0 1-.4 1.47 1.31 1.31 0 1 0 2.467.88 12.413 12.413 0 0 0 .5-1.865 1.31 1.31 0 0 0-1.038-1.53z" class="cls-1" transform="translate(-493.667 -410.987)"/>
            </g>
        </g>
        <g id="Group_304" transform="translate(85.917 64.94)">
            <g id="Group_303">
                <path id="Path_949" d="M494.587 374.832a12.367 12.367 0 0 0-.678-1.811 1.31 1.31 0 1 0-2.374 1.108 9.734 9.734 0 0 1 .534 1.426 1.31 1.31 0 1 0 2.518-.723z" class="cls-1" transform="translate(-491.412 -372.265)"/>
            </g>
        </g>
        <g id="Group_306" transform="translate(67.698 58.525)">
            <g id="Group_305">
                <path id="Path_950" d="M390.015 335.489h-1.73a1.31 1.31 0 0 0 0 2.619h1.73a1.31 1.31 0 0 0 0-2.619z" class="cls-1" transform="translate(-386.975 -335.489)"/>
            </g>
        </g>
        <g id="Group_308" transform="translate(61.814 80.792)">
            <g id="Group_307">
                <path id="Path_951" d="M356.283 463.134h-.006l-1.73.008a1.31 1.31 0 0 0 .006 2.619h.006l1.73-.008a1.31 1.31 0 0 0-.006-2.619z" class="cls-1" transform="translate(-353.243 -463.134)"/>
            </g>
        </g>
        <g id="Group_310" transform="translate(74.618 58.525)">
            <g id="Group_309">
                <path id="Path_952" d="M429.737 335.5c-.185-.008-.373-.012-.558-.012h-1.23a1.31 1.31 0 0 0 0 2.619h1.23q.222 0 .442.01h.059a1.31 1.31 0 0 0 .057-2.618z" class="cls-1" transform="translate(-426.64 -335.49)"/>
            </g>
        </g>
        <g id="Group_312" transform="translate(68.733 80.76)">
            <g id="Group_311">
                <path id="Path_953" d="M395.948 462.955h-.006l-1.73.008a1.31 1.31 0 0 0 .006 2.619h.006l1.73-.008a1.31 1.31 0 0 0-.006-2.619z" class="cls-1" transform="translate(-392.908 -462.955)"/>
            </g>
        </g>
    </g>
</svg>
