<svg xmlns="http://www.w3.org/2000/svg" xmlns:xlink="http://www.w3.org/1999/xlink" width="467.63" height="351.605" viewBox="0 0 467.63 351.605">
    <defs>
        <radialGradient id="radial-gradient" cx=".5" cy=".5" r=".67" gradientTransform="matrix(.621 0 0 1 .189 0)" gradientUnits="objectBoundingBox">
            <stop offset=".107" stop-color="#189886"/>
            <stop offset="1" stop-color="#a94468"/>
        </radialGradient>
        <radialGradient id="radial-gradient-2" cx=".5" cy=".5" r=".738" gradientTransform="matrix(.546 0 0 1 .227 0)" xlink:href="#radial-gradient"/>
        <radialGradient id="radial-gradient-3" cx=".5" cy=".5" r=".563" gradientTransform="matrix(.808 0 0 1 .096 0)" xlink:href="#radial-gradient"/>
        <style>
            .cls-1{fill:#526f59}.cls-26{opacity:.55}.cls-26,.cls-32,.cls-41,.cls-6{mix-blend-mode:multiply;isolation:isolate}.cls-3,.cls-6{fill:#788f78}.cls-4{fill:#316f39}.cls-6{opacity:.75}.cls-7{fill:#245433}.cls-8{fill:#ffd2c6}.cls-12{fill:#b53a39}.cls-13{fill:#b4472c}.cls-15{fill:#6e232f}.cls-16{fill:#e76f51}.cls-17{fill:#543a39}.cls-18{fill:#c06320}.cls-19{fill:#974100}.cls-20{fill:#dc9567}.cls-21{fill:#282f39}.cls-22{fill:#ce5633}.cls-23{fill:#812c21}.cls-24{fill:#f78b41}.cls-25{fill:#b33817}.cls-26{fill:#682c21}.cls-27{fill:#312b33}.cls-28{fill:#514c53}.cls-31{fill:#ffb63b}.cls-32{fill:#f2c975}.cls-33{fill:#5fae5e}.cls-34{fill:#d93d2c}.cls-35{fill:#939094}.cls-37{fill:#a96c4a}.cls-38{fill:#8a5737}.cls-39,.cls-41{fill:#af7650}.cls-40{fill:#885032}.cls-41{opacity:.32}.cls-50{fill:#be8162}.cls-51{fill:#cd936e}.cls-54{fill:#c48a67}.cls-55{fill:#a86844}.cls-56{fill:#decccd}.cls-57{fill:#905536}
        </style>
    </defs>
    <g id="Group_316" transform="translate(-20.895 -36.74)">
        <g id="Group_56" transform="translate(20.895 36.74)">
            <path id="Path_199" d="M376.1 153.442c-1.7 7.6-4.791 14.735-13.808 22.772-3.446 3.072-6.048 4.848-11.932 7.879 5.75.365 13.514.11 18.926-1.95-7.512 7.1-12.987 9.98-23.1 13.268a27.469 27.469 0 0 0 21.571-.733s-6.14 7.547-13.007 11.272c-5.17 2.8-6.559 4.6-11.936 6.84 10.382.177 15.961.2 25.529-4.484 0 0-3.947 10.521-30.526 18.2 21.052 5.974 28.39-1.964 28.39-1.964-1.245 1.4-6.225 12.474-29.8 19.553 44.68 9.255 77.441-6.454 77.441-6.454-19.717-3.218-29.144-13.563-29.144-13.563 10.017 4.568 17.326 2.027 23.9-1.752-12.1-2.173-22.711-9.315-25.535-13.194 5.371 3.8 15.271 3.239 23.477-1.26-1.166-.916-16.306-1-23.515-12.683 15.579 5.789 17.459-1.349 20.682-1.767-14.118-2.329-19.075-4.79-21.887-12.316 6.881 5.771 14.584 4.176 19.41 2.841-16.341-6.637-24.07-27.347-25.136-30.505z" class="cls-1" transform="translate(36.198 -15.623)"/>
            <g id="Group_26" transform="translate(249.286 282.914)" style="isolation:isolate;mix-blend-mode:multiply" opacity="0.55">
                <path id="Path_202" d="M384.61 283.31c-.81-.056-1.135-.115-1.432-.6.086-2.768-11.93-1.425-15.622-2.644-1.411-.465-1.111-.771-3.378-.97-2.508-.221-5.472-.123-8.25-.122-4.533 0-7.067-.759-11.329-.927-3.908-.153-8.14.09-12.033 0a59.351 59.351 0 0 0-10.705.579c-3.533.53-6.414 1.168-9.9 1.934-4.237.933-5.021.853-7.059-.034-2.291-1-3.529-.981-7.534-1.238-3.8-.243-6.238-1.266-9.859-1.559-4.067-.328-9.67.442-14.132 1.4-6.728 1.446-11.423 1.172-17.927 1.81a35.073 35.073 0 0 0-9.134 1.869c-2.051.855-2.091 1.749-3.484 2.629a11.236 11.236 0 0 1-2.976 1.221l-.322-.931a1.991 1.991 0 0 0 .88-.414c.307-.329-.22-.6-1.177-.6h-.052l-.083-.241.051.241a3.764 3.764 0 0 0-2.206.594c-.307.329.22.6 1.176.6a5.756 5.756 0 0 0 1.249-.143c.06.28.128.6.2.964-.25.066-.5.133-.756.195-3.771.894-8.7 2.257-6.127 2.944a72.7 72.7 0 0 0 7.807 1.183c1.555 7.223 4.1 18.793 6.036 26.3.12.469.248.953.38 1.447-.053.06-.1.122-.156.183s-.122.143-.18.216c-.073.09-.143.181-.211.272-.05.065-.1.13-.149.2-.077.105-.15.211-.222.318-.037.054-.076.107-.111.162-.105.162-.205.323-.3.488-1.1 1.928-2.8 6.691 4.7 9.8 1.422 4.645 2.9 9.253 4.1 12.947h1.084q1.968-.1 3.944-.273l-3.858-11.134a75.151 75.151 0 0 0 13.04 1.284 3.837 3.837 0 0 0-1.564 1.457c-.795 1.766 3.412 1.221 3.412 1.221l-.952.81h-.811l-5.906 6.016c1.1-.131 2.191-.273 3.284-.436l5.208-5.58h-.333l1.449-1.692c-2.416.576-4.222.1-3.825-.54a3.907 3.907 0 0 1 1.392-1.231c.684.011 1.365.021 2.085.021.509 0 1-.012 1.5-.019a1.051 1.051 0 0 1-.006.351l-1.668.194 1.636 1 2.515-1.476-1.318.152a1.17 1.17 0 0 0 .111-.231q2.746-.069 5.3-.266c-4.987 3.4-9.53 6.533-13.313 9.2q2.352-.367 4.679-.828c3.681-2.571 7.942-5.548 12.532-8.757q3.41-.4 6.444-1l-18.925 9.745c2.864-.563 5.695-1.215 8.46-1.957 5.631-2.916 12.1-6.287 19.241-10.036 9.105-2.956 14.63-6.87 17.294-9.143 17.173-9.137 36.592-19.65 56.188-30.616 2.72-.339 5.9-.721 9.728-1.155 16.283-1.845 7.362-5.164 2.18-5.154zm-50.258 11.747c.18-.045.36-.09.528-.134.22-.058.419-.115.618-.171.077-.023.16-.044.234-.065.263-.077.5-.15.725-.22h.012c.909-.287 1.437-.495 1.457-.5h.008l-2.227-.515 4.3-.348c-.868.569-2.042 1.34-3.471 2.28a21.9 21.9 0 0 0-2.414-.256zm-92.943-3.925c.274.021.533.039.756.05q1.157.053 2.316.1c.611.6 1.776 1.027 3.652.922l14.607 1.059 2.163.156 4.222.307.207.015-7.721.841s-.039 1.784 3.485 2.878c-3.171.429-6.045 1.349-8 3.215-2.518 2.4.068 3.424-.407 5.426-.361 1.516-2.928 3.542-5.832 4.863 4.014-1.364 7.9-2.305 11.057-4.19 2.246-1.342 4.934-4.407 9.176-3.595l-.484.2-.34.146q-.708.3-1.395.611l-.475.214-1.278.592-.373.176q-.792.377-1.546.753c-.093.046-.182.092-.274.139q-.6.3-1.179.6c-.169.087-.333.175-.5.262q-.459.243-.9.482l-.5.27c-.325.178-.64.354-.949.529l-.62.354c-.268.155-.535.309-.791.461-.195.115-.381.227-.57.34-.169.1-.335.2-.5.3-.2.123-.4.243-.593.364-.112.07-.221.137-.331.207-.769.482-1.461.931-2.073 1.34-2.155 1.445-3.323 2.39-3.323 2.39a11.289 11.289 0 0 0-2.267 1.51zm10.965 24.439a2.3 2.3 0 0 1 .357-.085c.163-.02.3-.031.443-.045v.018c-.078.237-.6.477-1.163.536a1.711 1.711 0 0 1-.56-.026 5.633 5.633 0 0 1 .922-.4zm-5.683 4.991q.156-.269.326-.528c.038-.058.078-.112.116-.169l.052-.074c.814 2.985 1.792 6.319 2.81 9.668-5.795-2.993-4.306-7.148-3.303-8.898zm25.779 12.28c-.5 0-.972-.008-1.457-.014a4.219 4.219 0 0 1 1.592-.2 1.34 1.34 0 0 1 .639.2c-.261.003-.51.013-.773.013zm8.392-.351q-2.848.239-5.954.314a.88.88 0 0 0-.462-.625 4.451 4.451 0 0 0-2.889-.124 10.448 10.448 0 0 0-2.123.75 70.142 70.142 0 0 1-14.1-1.486l-5.064-14.62.03-.021a6.224 6.224 0 0 0 1.025.1c2.223.045 3.426-.448 3.784-1.064.018.328-.568.818-.855 1.014-.181.124-.122.248.132.278a1.355 1.355 0 0 0 .788-.172c.067-.046 1.649-1.136.848-1.658a2.017 2.017 0 0 0-.885-.234 1.327 1.327 0 0 0-.205-.313 131.494 131.494 0 0 0 28.6 3.264q1.736 0 3.513-.059t3.522-.133q.871-.037 1.734-.079c4.023-.193 7.876-.444 11.4-.716l.36-.028c-7.861 5.241-15.945 10.673-23.199 15.611zm31.938-10.208c-.268.187-.551.376-.838.564-.183.121-.363.241-.553.363-.328.209-.676.419-1.027.629-.172.1-.336.207-.515.311-.541.315-1.1.631-1.7.946a55.918 55.918 0 0 1-5.956 2.706q5.3-2.788 11.009-5.819c-.135.099-.273.199-.42.3zm-20.882 8.581c-2.212.482-4.594.9-7.148 1.221 6.955-4.863 14.6-10.214 22.034-15.429.893-.074 1.762-.15 2.6-.226.888-.079 1.744-.159 2.562-.237l1.2-.117c1.587-.156 3.013-.306 4.249-.441q-.152.108-.294.22a6.543 6.543 0 0 0-1.486.442c-.581.272-1.175.73-.7 1.369.074.1.381.125.685.05s.488-.22.411-.322c-.182-.247-.273-.6.328-.88.042-.02.105-.037.155-.054-.365.509-.176.948 1.351 1.044zm26.762-14.115c-.418 0-.691-.129-.626-.326a.651.651 0 0 1 .327-.291c.146-.007.293-.018.44-.018h.034c.067.101.026.286-.174.635zm3.211-1.321a1.878 1.878 0 0 0-.281-.275l.324-.04c.494-.061.754-.1.754-.1a17.564 17.564 0 0 0 2.591-6.6c4.9-1.95 12.577-4.127 15.91-6.742 1.866-1.463 2.272-2.807 1.4-3.852-.527-.631-1.988-.977-2.929-1.522a9.572 9.572 0 0 0-2.771-.856c1.223-.873 2.334-1.667 3.3-2.362 14.254-1.159 25.127-2.05 25.127-2.05a13.241 13.241 0 0 0 5.051-1.12l1.435-.182z" class="cls-3" transform="translate(-231.984 -276.06)"/>
                <path id="Path_203" d="M248.31 309.762a6.512 6.512 0 0 1 1.075-.368h-.041a2.057 2.057 0 0 0-1.034.368z" class="cls-3" transform="translate(-229.03 -270.317)"/>
                <path id="Path_204" d="M306.644 310.335c.033-.1-.033-.177-.145-.236a1.143 1.143 0 0 1-.156.511.625.625 0 0 0 .301-.275z" class="cls-3" transform="translate(-218.529 -270.189)"/>
                <path id="Path_205" d="M299.056 279.052c-1.232 0-1.938-.314-1.577-.7a4.979 4.979 0 0 1 2.884-.7c1.232 0 1.938.313 1.577.7a4.987 4.987 0 0 1-2.884.7z" class="cls-3" transform="translate(-220.15 -276.06)"/>
                <path id="Path_206" d="M305.637 277.784c-.971 0-1.575-.195-1.352-.435a4.1 4.1 0 0 1 2.163-.435c.971 0 1.577.195 1.352.435a4.094 4.094 0 0 1-2.163.435z" class="cls-3" transform="translate(-218.909 -276.193)"/>
                <path id="Path_207" d="M291.292 277.421c-.972 0-1.572-.2-1.34-.45a4.069 4.069 0 0 1 2.179-.449c.973 0 1.573.2 1.342.449a4.067 4.067 0 0 1-2.181.45z" class="cls-3" transform="translate(-221.504 -276.265)"/>
                <path id="Path_208" d="M321.289 277.46c-1.082 0-1.717-.259-1.42-.579a4.414 4.414 0 0 1 2.5-.577c1.082 0 1.717.259 1.419.577a4.4 4.4 0 0 1-2.499.579z" class="cls-3" transform="translate(-216.094 -276.304)"/>
                <ellipse id="Ellipse_14" cx="2.054" cy=".525" class="cls-3" rx="2.054" ry=".525" transform="matrix(.998 -.07 .07 .998 138.698 2.454)"/>
                <path id="Path_209" d="M339.224 278.351c-.614 0-.966-.157-.785-.351a2.486 2.486 0 0 1 1.44-.35c.614 0 .965.156.784.35a2.478 2.478 0 0 1-1.439.351z" class="cls-3" transform="translate(-212.73 -276.06)"/>
                <path id="Path_210" d="M261.225 279.1c-1.013 0-1.62-.231-1.353-.516a4.16 4.16 0 0 1 2.316-.516c1.013 0 1.62.232 1.355.516a4.17 4.17 0 0 1-2.318.516z" class="cls-3" transform="translate(-226.949 -275.984)"/>
                <path id="Path_211" d="M253.275 279.642c-.582 0-.908-.155-.729-.347a2.341 2.341 0 0 1 1.378-.348c.582 0 .908.156.729.348a2.341 2.341 0 0 1-1.378.347z" class="cls-3" transform="translate(-228.272 -275.826)"/>
                <path id="Path_212" d="M240.145 282.707c-.521 0-.833-.118-.7-.265a2.142 2.142 0 0 1 1.192-.265c.521 0 .833.118.7.265a2.138 2.138 0 0 1-1.192.265z" class="cls-3" transform="translate(-230.639 -275.241)"/>
                <path id="Path_213" d="M364.533 281.747c-1.237 0-2.013-.241-1.736-.537a5.246 5.246 0 0 1 2.741-.539c1.235 0 2.014.241 1.736.539a5.263 5.263 0 0 1-2.741.537z" class="cls-3" transform="translate(-208.323 -275.514)"/>
                <path id="Path_214" d="M367.561 283.189c-.7 0-1.09-.188-.872-.421a2.816 2.816 0 0 1 1.659-.422c.7 0 1.09.189.873.422a2.815 2.815 0 0 1-1.66.421z" class="cls-3" transform="translate(-207.62 -275.211)"/>
            </g>
            <path id="Path_215" d="M108.168 79.219c-1.519 12-5.043 23.045-16.68 35.2-4.354 4.548-7.688 7.152-15.3 11.546 7.934.555 18.612.221 25.872-2.773-9.465 10.279-16.545 14.345-29.7 18.874 9.926 3.816 19.9 3.725 29.183-.76 0 0-7.387 10.521-16.1 15.537-6.468 3.721-8.033 6.124-14.755 9.013 13.7.5 21.107.676 33.345-5.482 0 0-4 14.156-37.615 23.42 28.067 8.472 36.711-1.618 36.711-1.618-1.475 1.8-6.622 15.952-35.694 23.859C125.641 219.633 168.3 201.2 168.3 201.2c-26.948-5.032-40.5-19.023-40.5-19.023 13.926 6.42 23.725 3.3 32.581-1.554-16.83-3.333-31.965-13.367-36.2-18.776 7.72 5.365 21.353 4.856 32.551-1.207-1.695-1.313-22.866-1.771-33.975-18.409 22.349 8.506 24.511-1.717 29.086-2.285-20.255-3.544-27.483-7.17-32.232-18.254 10.337 8.548 21.191 6.246 28.038 4.289-24.066-9.953-37.534-41.781-39.481-46.762z" class="cls-1" transform="translate(-12.659 -29.053)"/>
            <path id="Path_216" d="M332.316 135.176c-.6 9.854-2.951 19.037-12.128 29.193-3.457 3.826-6.153 6.012-12.385 9.684 6.728.585 15.78.441 21.809-2.049-7.539 8.779-13.39 12.219-24.409 15.968 8.637 3.533 17.205 3.634 24.972-.169 0 0-5.816 9.21-13.11 13.525-5.423 3.207-6.67 5.341-12.361 7.8 11.9.771 18.369 1.1 28.733-4.215 0 0-2.69 12.855-31.742 20.524 25.143 8.737 32.249-.487 32.249-.487-1.2 1.638-4.967 14.847-30.491 21.43 53.505 15.341 91.453-1.233 91.453-1.233-25.426-5.78-38.879-19.5-38.879-19.5 13.144 6.483 21.819 3.81 29.468-.549-15.636-3.608-30.043-13.327-34.205-18.389 7.27 5.107 19.451 4.965 29-.37-1.646-1.246-20.619-2.134-31.629-17.342 20.35 8.053 21.411-1.1 25.41-1.53-18.109-3.491-24.668-6.8-29.518-16.529 9.528 7.584 18.815 5.723 24.645 4.1-21.61-8.938-34.981-35.778-36.882-39.862z" class="cls-1" transform="translate(29.916 -18.928)"/>
            <path id="Path_217" d="M77.6 118.556c-1.333 11.26-4.641 21.737-15.829 33.531-4.171 4.4-7.368 6.936-14.652 11.262 7.637.3 17.988-.3 25.047-3.333-9.131 9.96-15.969 13.966-28.614 18.516 9.588 3.393 19.276 3.109 28.316-1.342 0 0-7.126 10.149-15.579 15.061-6.243 3.627-7.738 5.927-14.2 8.747 13.254.315 20.487.4 32.457-5.654 0 0-3.786 13.638-36.462 22.72 27.4 8.044 35.834-1.734 35.834-1.734-1.441 1.743-6.372 15.449-34.734 23 57.9 13.68 101.682-4.385 101.682-4.385C112.723 229.9 98.642 216.2 98.642 216.2c14.316 6.235 24.344 3.13 33.425-1.719-17.464-3.166-33.055-12.812-37.414-18 7.884 5.1 21.767 4.444 33.161-1.642-1.78-1.261-23.436-1.385-34.9-17.228 22.744 7.758 24.74-2.2 29.409-2.863-20.645-2.937-27.958-6.233-32.864-16.67 10.463 7.863 21.367 5.357 28.283 3.28-24.419-8.787-38.173-38.246-40.142-42.802z" class="cls-4" transform="translate(-17.785 -21.935)"/>
            <path id="Path_218" d="M399.836 148.107c-2.46 8.257-6.308 15.91-16.42 23.982-3.934 3.14-6.866 4.9-13.455 7.756 6.056 1.091 14.218 1.678 20.038-.091-8.571 7.416-14.67 10.212-25.9 13.046a26.5 26.5 0 0 0 22.974 1.365s-7.276 8.3-15.023 12.1c-5.92 2.907-7.652 4.959-13.832 7.216 11.316 1.109 17.314 1.61 27.979-3.178 0 0-5.344 12.28-35.351 19.726 22.478 8.825 31.282-.394 31.282-.394-1.485 1.611-8.139 14.888-35.286 22.5 47.872 13.581 82.7-3.946 82.7-3.946-19.414-4.883-28.029-17.828-28.029-17.828 9.763 6.093 17.335 3.551 24.172-.443-11.813-3.38-21.851-12.582-24.343-17.374 5.085 4.9 15.075 5.033 23.559.49-1.061-1.149-16.074-2.526-22.213-16.747 15.022 8.143 17.5.157 20.683-.007-13.7-4.052-18.423-7.383-20.515-16.3 6.33 7.333 14.09 6.335 18.92 5.339-15.484-9.299-21.185-33.552-21.94-37.212z" class="cls-4" transform="translate(38.087 -16.588)"/>
            <path id="Path_219" fill="#529259" d="M129.166 89.512c-1.519 12-5.043 23.045-16.68 35.2-4.353 4.548-7.688 7.153-15.3 11.546 7.934.555 18.612.222 25.873-2.773-9.465 10.279-16.546 14.345-29.7 18.874 9.927 3.816 19.9 3.725 29.184-.759 0 0-7.388 10.52-16.1 15.535-6.469 3.721-8.033 6.124-14.756 9.013 13.7.5 21.107.676 33.347-5.482 0 0-4 14.156-37.615 23.419 28.066 8.472 36.71-1.618 36.71-1.618-1.475 1.8-6.62 15.952-35.693 23.859 58.212 13.6 100.865-4.831 100.865-4.831-26.947-5.032-40.5-19.023-40.5-19.023 13.926 6.42 23.724 3.3 32.581-1.554-16.83-3.333-31.965-13.367-36.2-18.776 7.721 5.365 21.353 4.856 32.551-1.207-1.695-1.312-22.866-1.771-33.974-18.409 22.35 8.506 24.51-1.717 29.085-2.285-20.255-3.544-27.482-7.17-32.232-18.254 10.338 8.548 21.192 6.246 28.039 4.289-24.069-9.955-37.538-41.783-39.485-46.764z" transform="translate(-8.859 -27.191)"/>
            <path id="Path_220" d="M364.484 256.269l-1.277 5.93 6.656 2.127 1.7-3.617a22.394 22.394 0 0 1-7.079-4.44z" class="cls-6" transform="translate(41.047 2.984)"/>
            <g id="Group_27" transform="translate(403.81 222.027)">
                <path id="Path_221" d="M391.761 252.849c-2.642-6.9-4.646-15.985-1.186-22.49 0 0-.641 13.547 7.713 22.364z" class="cls-7" transform="translate(-358.144 -223.732)"/>
                <path id="Path_222" d="M391.313 253.685l-8.778.171a36.35 36.35 0 0 1 8.358-29.109c-5.672 12.816-2.705 22.977.42 28.938z" class="cls-7" transform="translate(-359.339 -224.747)"/>
                <path id="Path_223" d="M377.883 253.012c.912-5.361-.549-13.129-5.965-21.474 0 0 12 8.188 11.169 21.374z" class="cls-7" transform="translate(-361.187 -223.518)"/>
                <path id="Path_224" d="M388.712 252.19c1.222-4.79 5.644-11.46 16.044-19.279 0 0-19.259 4.844-19.406 19.344z" class="cls-4" transform="translate(-358.756 -223.27)"/>
                <path id="Path_225" d="M378.775 252.26c-1.761-4.432-6.488-10.319-15.944-16.479 0 0 18.634 2.606 20.586 16.388z" class="cls-4" transform="translate(-362.831 -222.75)"/>
                <path id="Path_226" d="M377 253.188c6.8-9.9 1.127-22.766 1.127-22.766 5.867 8.182 7.781 15.132 5.841 22.631z" class="cls-4" transform="translate(-360.266 -223.72)"/>
                <path id="Path_227" d="M388.346 251.979c1.318-4.536 2.144-9.391-.952-16.2 0 0 6.283 8.747 5.919 16.1z" class="cls-4" transform="translate(-358.386 -222.75)"/>
                <path id="Path_228" d="M380.306 253.933c1.324-5.213 3.708-18.1-.9-28.3 0 0 8.411 14.41 6 28.2z" class="cls-7" transform="translate(-359.832 -224.587)"/>
                <path id="Path_229" d="M386.414 251.817c2.481-4.921-.333-10.339-2.7-14.817 0 0 9.373 7.149 7.95 14.716z" class="cls-4" transform="translate(-359.052 -222.53)"/>
                <path id="Path_230" d="M391.492 251.866c3.275-3.538 7.679-9.6 6.542-15.4a20.189 20.189 0 0 1 .061 15.269z" class="cls-4" transform="translate(-357.645 -222.626)"/>
            </g>
            <path id="Path_231" d="M150.269 288.679l3.107 7.22 2.3-.825 4.232-1.517-.613-4.878z" class="cls-6" transform="translate(2.515 8.849)"/>
            <path id="Path_232" d="M412.286 259.588c-3.325-2.7-13.569-9.382-17.577-13.351-4.712-.228-9.429-.339-14.186-.281-8.6.1-17.347-.038-25.507-3.054-9.7-3.587-19.007-8-29.5-8.681a203.155 203.155 0 0 0-29.267.531c-20.122 1.6-39.564 3.052-59.57-.516-6.161-1.1-12.345-2.345-18.548-3.542h-69.94q-1.745.679-3.507 1.46c-7.514 3.339-14.76 6.213-23.156 5.729-9.207-.53-18.1-2.852-27.232-3.927a259.744 259.744 0 0 0-31.052-1.6q-2.613.007-5.213.042c-.2.191-.4.386-.6.576l-.437.407a9.063 9.063 0 0 1-1.564.868c12.415 32.394 37.062 60.657 69.761 81.508 34.2-8.765 69.925-25.159 70.809-24.813 0 0 108.219-10.232 147.8-15.332 3.427-1.628 65.179-14.173 68.486-16.024z" class="cls-8" transform="translate(-14.646 -1.643)"/>
            <g id="Group_32" transform="translate(0 65.016)">
                <path id="Path_233" fill="#cf5b3e" d="M152 114.474s-29.934 86.279-98.464 147.415c0 0 102.549 27.609 147.908 45.358l211.596-22.185s-45.554-34.02-69.657-92.689S306.6 91.794 306.6 91.794s-92.126 53.74-154.6 22.68z" transform="translate(-14.988 -91.794)"/>
                <path id="Path_234" fill="#b0482e" d="M271.464 171.125c-13.737 7.186-27.167 14.995-41.038 21.916-18.6 9.281-40.524 18.182-61.682 17.459-20.937-.716-35.877-13.349-37.809-34.605-.557-6.136-.092-13.019.226-20-2.716 4.251-5.738 8.377-7.917 12.661-6.325 12.44-12.8 24.717-20.524 36.367-7.246 10.933-15.128 21.977-25.033 30.677-1.634 1.436-16.237 15.03-18.824 16.4 21.863 5.986 95.589 26.477 135.9 41.47 38.475-44.061 75.561-114.722 79.479-123.8q-1.391.724-2.778 1.455z" transform="translate(-14.025 -80.195)"/>
                <path id="Path_235" fill="#ac4329" d="M116.219 169.993c-2.327 4.313-5.162 8.929-8.084 13.575-2.21 3.515-3.274 47.035 6.322 58.277 6.026 7.06 15.448 10.373 24.669 11.433 21.895 2.513 53.335-8.137 70.888-21.464 12.9-9.8 31.8-30.412 41.727-43.139 9.433-12.094 38.005-66.288 45.253-96.88-6.674 17.933-17.873 36.138-22.2 44.742-9.738 19.342-22.335 34.813-37.332 50.572a197.613 197.613 0 0 1-44.781 35.191c-9.259 5.306-19.1 9.907-29.615 11.713s-21.842.6-30.9-5.032c-16.95-10.535-17.341-33.982-16.194-51.741.086-1.407.128-5.84.247-7.247z" transform="translate(-5.38 -91.794)"/>
                <path id="Path_236" d="M289.162 172.032a160.453 160.453 0 0 1-18.268 27.012 161.542 161.542 0 0 0-15.457 22.383c-11.267 18.921-25.737 34.6-40.309 50.918-7 7.841-13.675 16.062-20.954 23.62l193.419-20.279s-45.555-34.02-69.658-92.686c-5.85-14.24-11.025-27.487-15.51-39.387a207.841 207.841 0 0 1-13.263 28.419z" class="cls-12" transform="translate(10.46 -82.418)"/>
                <g id="Group_28" transform="translate(186.83)">
                    <path id="Path_237" d="M179.134 307.2l211.179-22.142s-45.554-34.02-69.657-92.689-36.781-100.575-36.781-100.575-17.858 84.8-39.954 123.874c-25.67 45.392-58.287 85.009-64.787 91.532z" class="cls-13" transform="translate(-179.092 -91.794)"/>
                    <path id="Path_238" d="M272.35 106.98s-1.078 87.575-8.967 128.5c-7.014 36.382-15.525 52.606-22.2 61.3l92.118-9.659c-13.69-13.66-38.406-42.539-44.037-77.644-7.385-46.069-16.914-102.497-16.914-102.497z" class="cls-13" transform="translate(-167.863 -89.046)"/>
                    <path id="Path_239" d="M179.141 274.2h-.022l-.02.041z" class="cls-13" transform="translate(-179.098 -58.788)"/>
                </g>
                <path id="Path_240" fill="#a03f27" d="M316.937 266.077c-16.652 1.966-102.6 12.005-109.36 9.892-6.86-2.144-52.205-16.561-66.664-20.188-15.423-3.87-73.595-26.786-76.93-28.254q-5.068 4.987-10.447 9.8s102.549 27.609 147.908 45.358L413.04 260.5s-2.286-1.712-6.1-5.022c-.004 0-66.551 7.83-90.003 10.599z" transform="translate(-14.988 -67.233)"/>
                <path id="Path_241" d="M250.416 294.26l66.542-6.977c-6.2-7.864-30.47-40.886-36.264-82.511-6.656-47.824-8.869-90.225-8.869-90.225s1.156 88.425-3.457 122.518c-3.256 24.076-12.357 45.661-17.952 57.195z" class="cls-15" transform="translate(20.637 -87.677)"/>
                <path id="Path_242" d="M250.416 294.26l66.542-6.977c-6.2-7.864-30.47-40.886-36.264-82.511-6.656-47.824-8.869-90.225-8.869-90.225s1.156 88.425-3.457 122.518c-3.256 24.076-12.357 45.661-17.952 57.195z" class="cls-15" transform="translate(20.637 -87.677)"/>
                <path id="Path_243" d="M250.416 294.26l66.542-6.977c-6.2-7.864-30.47-40.886-36.264-82.511-6.656-47.824-8.869-90.225-8.869-90.225s1.156 88.425-3.457 122.518c-3.256 24.076-12.357 45.661-17.952 57.195z" class="cls-15" transform="translate(20.637 -87.677)"/>
                <path id="Path_244" d="M285.131 251.819c-9.471-.338-17.734-1.4-26.918-.468-2.761 7.353-5.559 13.606-7.8 18.221l66.321-6.954c-.026-.025-.054-.038-.08-.064-1.654-1.573-22.791-10.423-31.523-10.735z" class="cls-16" transform="translate(20.637 -62.989)"/>
                <path id="Path_245" d="M293.26 92.944c-.234-.753-.353-1.15-.353-1.15s-40.021 46.844-47.349 54.171c-11.278 11.278-42.875 35.942-53.432 40.676-8.594 3.852-21.2 9.115-30.691 5.915-8.967-3.022-14.517-13.515-17.876-22.109-6.75-17.28-5.378-37.339-5.35-55.483 0-.087.012-.168.013-.254-.475 1.337-3.014 8.336-7.764 19-2.991 25.6-2.7 65.6 26.1 74.81 40.822 13.06 120.127-79.56 136.702-115.576z" class="cls-12" transform="translate(-1.293 -91.794)"/>
                <g id="Group_29" transform="translate(159.193 .001)">
                    <path id="Path_246" d="M156.975 319.7l-1.28-.742 132.42-227.16.444 1.317z" class="cls-17" transform="translate(-155.696 -91.795)"/>
                </g>
                <g id="Group_30" transform="translate(11.614 22.657)">
                    <path id="Path_247" d="M31.846 255.452l-1.117-.971 125.265-143.5.888.393z" class="cls-17" transform="translate(-30.729 -110.979)"/>
                </g>
                <g id="Group_31" transform="translate(291.225)">
                    <path id="Path_248" d="M387.6 279.938L267.884 91.794l-.387 1.388 119.145 187.987a4.373 4.373 0 0 1 .958-1.231z" class="cls-17" transform="translate(-267.497 -91.794)"/>
                </g>
                <path id="Path_249" d="M368.408 243.889l-4.16 19.32 6.656 2.126 8.436-17.909z" class="cls-18" transform="translate(41.236 -64.272)"/>
                <path id="Path_250" d="M370.963 245.273a4.659 4.659 0 0 1 .09-.529l-2.644-.855-4.16 19.32 4.306 1.22c.524-6.465 1.945-12.736 2.408-19.156z" class="cls-19" transform="translate(41.235 -64.272)"/>
                <path id="Path_251" d="M367.922 244.395c-.185 2.4.578 5.828 4.6 6.493 2.208.365 4.54-.9 6.026-3.179l.136-.288-10.786-3.492a3.047 3.047 0 0 1 .024.466z" class="cls-20" transform="translate(41.895 -64.265)"/>
                <path id="Path_252" d="M146.844 277.941l8.381 19.475 6.533-2.342-2.712-21.57z" class="cls-18" transform="translate(1.896 -58.913)"/>
                <path id="Path_253" d="M152.031 275.664l-5.187 1.886 8.381 19.475 2.3-.826c-1.625-3.699-5.201-17.45-5.494-20.535z" class="cls-19" transform="translate(1.896 -58.522)"/>
                <path id="Path_254" d="M154.3 280.972c5.219-1.448 4.677-7.26 4.745-7.468l-12.2 4.437.073.169c2.012 1.608 5.596 3.358 7.382 2.862z" class="cls-20" transform="translate(1.896 -58.913)"/>
                <path id="Path_255" d="M20.9 227.911l11.648 18.3 5.269-2.034-4.53-20.337z" class="cls-20" transform="translate(-20.895 -67.899)"/>
                <path id="Path_256" d="M33.32 223.99a7.5 7.5 0 0 1-6.22 5.06 12.317 12.317 0 0 1-6.2-1.154l11.639 18.292 5.269-2.035z" class="cls-18" transform="translate(-20.894 -67.873)"/>
                <path id="Path_257" d="M34.294 244.708c-1.558-3.7-5.912-14.666-6.6-16.377-.2.041-.385.092-.59.122a12.318 12.318 0 0 1-6.2-1.154l11.637 18.291 1.845-.712c-.028-.061-.066-.108-.092-.17z" class="cls-19" transform="translate(-20.894 -67.274)"/>
            </g>
            <g id="Group_46" transform="translate(258.846 149.383)">
                <g id="Group_33" transform="translate(0 126.895)">
                    <path id="Path_258" d="M389.756 286.142c-17.215-4.93-19.314-7.064-28.309-7.7-12.59-.887-23.8-6.024-36.285-6.61-6.619-.31-12.47-1.639-19.128-.957-1.324.136.535.23-.43.976-2.623-.155-5.236 1.372-7.7 2.107a78.6 78.6 0 0 1-17.14 2.73c-1.75.115-3.5.2-5.241.291-7.658 1.712-15.591 2.189-23.5 2.981a50.906 50.906 0 0 0-10.695 2.981c-3.21 1.559.442 4.653 3.379 6.681a6.055 6.055 0 0 1 2.624 3.378c.57 2-.224 4.026 1.029 5.966 1.545 2.39 4.739 3.591 7.389 4.242 5.907 1.45 10.859.829 16.238 4.107 3.568 2.175 8.452 3.923 12.825 3.177 3.895-.664 7.291-2.985 11.313-3.537 4.247-.582 5.469-.546 8.691-2.809 2.864-2.012 3.724-2.193 7.09-.077a47.2 47.2 0 0 0 8.094 4.387 23.119 23.119 0 0 0 10.163 1.314c3.977-.2 7.982.349 12.034 0 4.418-.379 7.663-2.109 12.194-2.1a46.2 46.2 0 0 0 8.362-.275c2.453-.451 2.437-1.144 4.283-2.2 4.829-2.766 15.591.282 18.089-6 .753-1.109 1.134-1.242 1.995-1.369 5.173.025 17.194-7.512 2.636-11.684z" class="cls-21" transform="translate(-240.079 -270.685)"/>
                    <path id="Path_259" d="M301.373 303.438c0 .878-1 1.59-2.23 1.59s-2.231-.712-2.231-1.59 1-1.59 2.231-1.59 2.23.712 2.23 1.59z" class="cls-21" transform="translate(-229.795 -265.046)"/>
                    <path id="Path_260" d="M306.346 305.525c0 .544-.788.986-1.758.986s-1.757-.442-1.757-.986.786-.985 1.757-.985 1.758.44 1.758.985z" class="cls-21" transform="translate(-228.725 -264.559)"/>
                    <ellipse id="Ellipse_15" cx="1.76" cy="1.019" class="cls-21" rx="1.76" ry="1.019" transform="translate(56.758 40.966)"/>
                    <path id="Path_261" d="M321.87 306.686c0 .725-.877 1.312-1.959 1.312s-1.958-.587-1.958-1.312.876-1.312 1.958-1.312 1.959.587 1.959 1.312z" class="cls-21" transform="translate(-225.988 -264.408)"/>
                    <ellipse id="Ellipse_16" cx="1.986" cy="1.234" class="cls-21" rx="1.986" ry="1.234" transform="translate(129.094 35.924)"/>
                    <ellipse id="Ellipse_17" cx="1.112" cy=".795" class="cls-21" rx="1.112" ry=".795" transform="translate(115.17 38.391)"/>
                    <ellipse id="Ellipse_18" cx="1.835" cy="1.17" class="cls-21" rx="1.835" ry="1.17" transform="translate(23.003 36.509)"/>
                    <path id="Path_262" d="M255.025 301.052c0 .437-.472.79-1.053.79s-1.053-.353-1.053-.79.471-.79 1.053-.79 1.053.354 1.053.79z" class="cls-21" transform="translate(-237.756 -265.333)"/>
                    <path id="Path_263" d="M244.6 290.025a1.787 1.787 0 1 1-1.734-1.352 1.579 1.579 0 0 1 1.734 1.352z" class="cls-21" transform="translate(-239.888 -267.43)"/>
                    <path id="Path_264" d="M244.659 293.85c0 .332-.422.6-.944.6s-.944-.269-.944-.6.423-.6.944-.6.944.268.944.6z" class="cls-21" transform="translate(-239.592 -266.602)"/>
                    <path id="Path_265" d="M369.4 296.839c0 .674-1 1.221-2.239 1.221s-2.238-.547-2.238-1.221 1-1.221 2.238-1.221 2.239.547 2.239 1.221z" class="cls-21" transform="translate(-217.488 -266.173)"/>
                    <path id="Path_266" d="M372.822 293.221a1.316 1.316 0 1 1-1.266-.958 1.144 1.144 0 0 1 1.266.958z" class="cls-21" transform="translate(-216.518 -266.781)"/>
                </g>
                <g id="Group_35" transform="translate(63.741 136.476)">
                    <g id="Group_34">
                        <path id="Path_267" d="M346.932 295.027l-7.9 4.5-44.974-18.32s5.307-3.353 9.27-2.146 40.571 12.19 40.571 12.19 2.893 2.449 3.033 3.776z" class="cls-22" transform="translate(-294.054 -278.798)"/>
                        <path id="Path_268" d="M298.862 279.1l.145.065a51.223 51.223 0 0 0 4.6 2.772c2.78 1.258 5.559 2.54 8.4 3.646a33.77 33.77 0 0 0 6.905 1.817 9.4 9.4 0 0 0 3.953 1.514c3.6.376 5.885.889 8.541 3.665a14.782 14.782 0 0 0 3.427 2.9c2.932 1.655 5.6-.28 7.48 2.12l-3.284 1.869-44.974-18.32a19.072 19.072 0 0 1 4.807-2.048z" class="cls-23" transform="translate(-294.054 -278.743)"/>
                        <path id="Path_269" d="M332.322 297.656s-3.154-3.1.748-6.855 6.493-.362 7.156 2.356z" class="cls-24" transform="translate(-287.347 -276.928)"/>
                        <path id="Path_270" d="M333.465 296.365c-.343-1.074-.719-3.134 1.13-4.4 1.784-1.219 3.451.169 4.42 1.239l-.828.471c-.583-1.058-1.889-2.135-3.44-1.118-1.264.829-1.164 2.514-.786 3.524z" class="cls-25" transform="translate(-286.974 -276.501)"/>
                        <path id="Path_271" d="M334.227 295.559a1.974 1.974 0 0 1 .748-2.277c.928-.628 1.741-.066 2.3.544l-.574.327a1 1 0 0 0-1.559-.307 1.2 1.2 0 0 0-.484 1.469z" class="cls-25" transform="translate(-286.801 -276.227)"/>
                    </g>
                    <path id="Path_272" d="M332.879 289.98c-1.337-1.479-3.479-1.864-5.275-2.142-.209-.187-.5-.311-.774-.531.706.306 1.25.846 1.995 1.094.706.235 1.482.328 2.191.526a3.516 3.516 0 0 1 1.863 1.053z" class="cls-23" transform="translate(-288.123 -277.259)"/>
                    <path id="Path_273" d="M331.763 291.977c-1.077-2.513-4.542-2.74-6.442-3.823.8.078 1.473 1.038 2.2 1.378.62.289 1.2.3 1.815.588a7.314 7.314 0 0 1 1.614 1.242c.303.27.738.506.813.615z" class="cls-23" transform="translate(-288.396 -277.105)"/>
                </g>
                <path id="Path_274" d="M342.313 297.656l4.62-2.63c-.451-1.848-1.8-4-3.837-4.016-5.331-1.6-36.151-10.848-39.771-11.95a8.408 8.408 0 0 0-4.463.1 18.931 18.931 0 0 0-4.42 1.821l-.012.007-.262.152-.028.017-.073.045-.012.007 44.974 18.32 1.77-1.009.243-.138 1.271-.723z" class="cls-26" transform="translate(-230.313 -142.322)"/>
                <g id="Group_37" transform="translate(59.313 133.108)">
                    <g id="Group_36">
                        <path id="Path_275" d="M327.8 294.642s-13.362-9.468-26.146-18.532a12.562 12.562 0 0 0-11.351 3.866l27.274 23.524 12.581-2.452c.409-1.829-2.358-6.406-2.358-6.406z" class="cls-22" transform="translate(-290.304 -275.946)"/>
                        <path id="Path_276" d="M313.768 296.1a20.855 20.855 0 0 1-3.271-5.416c-2.3-4.9-5.112-6.615-9.758-8.738a13.265 13.265 0 0 1-4.6-3.8q-1.058-.554-2.087-1.155a11.912 11.912 0 0 0-3.752 2.8l27.273 23.528 5.228-1.018c-1.424-4.053-5.861-2.671-9.033-6.201z" class="cls-23" transform="translate(-290.304 -275.757)"/>
                        <path id="Path_277" d="M313.485 300.782s-2.819-5.556 4.082-8.818 8.836 2.438 8.5 6.367z" class="cls-24" transform="translate(-286.212 -273.223)"/>
                        <path id="Path_278" d="M315.444 299.729c.025-1.588.449-4.509 3.489-5.364 2.931-.825 4.533 1.777 5.345 3.643l-1.317.256c-.3-1.676-1.564-3.7-4.091-3.042-2.062.539-2.688 2.834-2.636 4.353z" class="cls-25" transform="translate(-285.755 -272.642)"/>
                        <path id="Path_279" d="M316.7 299.067a2.784 2.784 0 0 1 2.024-2.706c1.52-.42 2.352.7 2.821 1.762l-.914.177a1.411 1.411 0 0 0-1.944-1.11 1.7 1.7 0 0 0-1.307 1.744z" class="cls-25" transform="translate(-285.527 -272.268)"/>
                    </g>
                    <path id="Path_280" d="M317.255 291.108c-1.12-2.576-3.807-4.054-6.082-5.234-.194-.344-.527-.64-.792-1.058.8.726 1.286 1.691 2.171 2.358.838.632 1.832 1.1 2.689 1.686a4.959 4.959 0 0 1 2.014 2.248z" class="cls-23" transform="translate(-286.671 -274.341)"/>
                    <path id="Path_281" d="M314.867 293.273c-.307-3.84-4.834-5.7-6.884-8 1.034.465 1.5 2.049 2.317 2.83.7.666 1.475.939 2.16 1.6a10.292 10.292 0 0 1 1.6 2.384c.28.497.755 1.007.807 1.186z" class="cls-23" transform="translate(-287.105 -274.259)"/>
                </g>
                <path id="Path_282" d="M318.571 288.1c-4.81-3.408-10.924-7.742-16.916-11.99a12.962 12.962 0 0 0-7.6 1.071l-.02.011c-.044.021-.085.047-.129.07a12.138 12.138 0 0 0-1.095.615c-.116.073-.228.152-.342.229q-.43.292-.835.624c-.1.086-.211.169-.315.26a11.981 11.981 0 0 0-1.016.99l15.714 13.556a21.7 21.7 0 0 1 12.554-5.436z" class="cls-26" transform="translate(-230.991 -142.838)"/>
                <g id="Group_39" transform="translate(12.656 124.707)">
                    <g id="Group_38">
                        <path id="Path_283" d="M250.8 282.889l10.279 7.914 67.144-17.009s-6.835-5.784-12.673-4.861-59.715 9.22-59.715 9.22-4.578 2.89-5.035 4.736z" class="cls-22" transform="translate(-250.796 -268.832)"/>
                        <path id="Path_284" d="M320.911 269.779c-.072.019-.144.044-.216.063a73.247 73.247 0 0 1-7.041 3.01c-4.175 1.228-8.353 2.491-12.59 3.491a48.079 48.079 0 0 1-10.112 1.207 13.431 13.431 0 0 1-5.882 1.359c-5.166-.181-8.488.094-12.789 3.492a21.057 21.057 0 0 1-5.412 3.422c-4.47 1.76-7.86-1.5-10.984 1.52l4.27 3.288 67.145-17.009a27.19 27.19 0 0 0-6.389-3.843z" class="cls-23" transform="translate(-249.875 -268.661)"/>
                        <path id="Path_285" d="M261.075 289.409s5.066-3.754.3-9.83-9.1-1.793-10.575 1.917z" class="cls-24" transform="translate(-250.796 -267.439)"/>
                        <path id="Path_286" d="M258.934 287.286c.7-1.449 1.636-4.284-.729-6.435-2.28-2.074-4.908-.442-6.488.879l1.076.828c1.033-1.378 3.092-2.644 5.08-.9 1.623 1.421 1.149 3.781.416 5.134z" class="cls-25" transform="translate(-250.63 -266.836)"/>
                        <path id="Path_287" d="M257.405 285.96a2.813 2.813 0 0 0-.607-3.365c-1.186-1.069-2.445-.436-3.35.318l.746.574a1.427 1.427 0 0 1 2.262-.125 1.718 1.718 0 0 1 .4 2.171z" class="cls-25" transform="translate(-250.316 -266.445)"/>
                    </g>
                    <path id="Path_288" d="M261.1 278.291c2.18-1.825 5.282-1.946 7.875-1.985.332-.223.768-.34 1.2-.6-1.056.294-1.93.949-3.033 1.153-1.044.193-2.158.17-3.2.31a5.022 5.022 0 0 0-2.842 1.122z" class="cls-23" transform="translate(-248.932 -267.589)"/>
                    <path id="Path_289" d="M262.4 281.332c2.017-3.337 6.957-2.975 9.855-4.13-1.148-.046-2.285 1.176-3.377 1.514-.933.287-1.761.182-2.682.474a10.433 10.433 0 0 0-2.525 1.436c-.482.321-1.142.568-1.271.706z" class="cls-23" transform="translate(-248.696 -267.318)"/>
                </g>
                <path id="Path_290" d="M272.549 279.781a11.122 11.122 0 0 1 2.833 6.7l50.075-12.685-.113-.093-.031-.025c-.08-.065-.2-.158-.35-.275a26.976 26.976 0 0 0-5.888-3.446 11.993 11.993 0 0 0-6.285-1.018c-3.987.631-30.389 4.7-46.722 7.218a14.353 14.353 0 0 1 6.481 3.624z" class="cls-26" transform="translate(-235.378 -144.126)"/>
                <path id="Path_291" d="M339.8 297.393s-26.191-100.224-30.548-126.8l1.879-5.907S335.01 272.78 339.8 297.393z" class="cls-17" transform="translate(-227.562 -162.971)"/>
                <path id="Path_292" d="M322.432 163.234s-27.2 48.562-42.011 76.782c-13.807 26.312-38.119 74.6-38.119 74.6l80.947-143.526z" class="cls-17" transform="translate(-239.677 -163.234)"/>
                <path id="Path_293" d="M313.385 202.816l-1.137-3.349-2.565 2.26 1.487.437c-.253.777-.821 2.078-1.868 2.278-1.716.327-2.613-1.9-2.288-4.267.2-1.451 2.45-2.533 4.329-1.226l.13-3.839h.333v-26.872h-3.158l.572 26.873h.811l.2 1.838a3.4 3.4 0 0 0-4.55 2.769 6.457 6.457 0 0 0 .381 3.839 4.89 4.89 0 0 0 1.658 2.192 2.483 2.483 0 0 0 3-.281 4.435 4.435 0 0 0 1.489-3z" class="cls-17" transform="translate(-228.234 -162.329)"/>
                <g id="Group_40" transform="translate(27.933 124.786)">
                    <path id="Path_294" d="M278.18 302.913l67.12-28.924a13.14 13.14 0 0 0-14.5-4.458c-9.731 2.831-62.616 20.3-62.616 20.3z" class="cls-22" transform="translate(-262.928 -268.899)"/>
                    <path id="Path_295" d="M273.96 296.249c4.07-1.1 6.948-4.039 10.561-5.855 8.125-4.083 17.574-.752 25.295-5.319 3.819-2.258 5.841-5.574 10.337-6.715 3.681-.934 7.314-1.835 10.976-2.649 2.33-.517 5.985-.794 7.622-2.565a9.925 9.925 0 0 0 1.8-2.826 13.09 13.09 0 0 1 3.922 3.412l-67.118 28.924-4.629-6.055c.413-.116.822-.24 1.234-.352z" class="cls-23" transform="translate(-262.104 -268.642)"/>
                    <path id="Path_296" d="M263.732 296.255s1.024-9.307 5.249-9.626c4.2-.318 12.878 1.02 10 13.082z" class="cls-24" transform="translate(-263.732 -265.699)"/>
                    <path id="Path_297" d="M271.857 289.959c4.268.7 4.442 5.858 4.233 8.583l-1.513-.343c.6-2.233.365-6.163-3.2-6.832-3.037-.569-4.5 2.979-4.69 5.044l-.961-.217c.283-1.994 1.45-7.005 6.131-6.235z" class="cls-25" transform="translate(-263.371 -265.103)"/>
                    <path id="Path_298" d="M270.573 293.171c2.084.342 2.446 2.541 2.428 4.145l-1.082-.244c.168-1.155-.044-2.439-1.71-2.752-1.393-.261-1.944.824-2.162 1.873l-.826-.187c.313-1.315 1.146-3.198 3.352-2.835z" class="cls-25" transform="translate(-263.101 -264.516)"/>
                    <path id="Path_299" d="M326.629 270.573a1 1 0 0 1-.2.033c-1.348 1.867-4.364 2.066-6.611 2.524a19.6 19.6 0 0 0-3.953 1.071c-.968.418-1.662 1.123-2.58 1.59.044-.022-.09.081-.047.055a11.805 11.805 0 0 1 3.383-1.083 30.336 30.336 0 0 1 4.42-.844 9.312 9.312 0 0 0 4.122-1.358 2.626 2.626 0 0 0 .978-1.225c.177-.384.064-.607.488-.763z" class="cls-23" transform="translate(-254.775 -268.597)"/>
                    <path id="Path_300" d="M307.689 277.46c-2.833.562-5.565.5-8.272 1.7-1.917.844-3.688 1.993-5.621 2.754 2.559-.517 4.583-1.7 6.953-2.587a62.524 62.524 0 0 1 6.716-1.66c.017-.284.073-.02.224-.207z" class="cls-23" transform="translate(-258.292 -267.35)"/>
                    <path id="Path_301" d="M296.818 282.345c-1.774.346-3.569.6-5.337.952-1.228.242-2.36.927-3.584 1.062a29.8 29.8 0 0 0 4.85-.678c1.402-.353 2.693-1.207 4.071-1.336z" class="cls-23" transform="translate(-259.359 -266.466)"/>
                    <path id="Path_302" d="M287.1 282.555c-2.186 1.254-4.829 1.271-7.141 2.2a14.243 14.243 0 0 0-4.169 2.736c2-.67 3.79-1.738 5.828-2.329 2.1-.611 3.773-1.83 5.482-2.607z" class="cls-23" transform="translate(-261.55 -266.428)"/>
                    <path id="Path_303" d="M281.518 286.621a9.788 9.788 0 0 0-5.308 2.441 18.959 18.959 0 0 1 2.949-1.329 14.662 14.662 0 0 1 2.359-1.112z" class="cls-23" transform="translate(-261.474 -265.693)"/>
                    <path id="Path_304" d="M312.6 273.6c-1.118.972-3.127.6-4.543.946a2.889 2.889 0 0 0-1.616.713c-.232.278-.233.679-.474.964 1.588-1.989 4.947-.851 6.633-2.623z" class="cls-23" transform="translate(-256.089 -268.049)"/>
                    <path id="Path_305" d="M308.51 278.227a8.63 8.63 0 0 0-3.157.872 6.024 6.024 0 0 1-1.885 1.071c1.216.5 1.782-.076 2.7-.674.862-.564 1.512-.811 2.342-1.269z" class="cls-23" transform="translate(-256.541 -267.212)"/>
                    <path id="Path_306" d="M303.773 281.337a27.651 27.651 0 0 0-4.86 1.062 16.76 16.76 0 0 1-3.171 1.322c.778-.154 1.577-.21 2.329-.367a18.865 18.865 0 0 0 1.864-.746c.664-.209 1.412-.346 2.077-.547a9.3 9.3 0 0 0 .9-.357c.214-.088 1.112-.357.861-.367z" class="cls-23" transform="translate(-257.94 -266.649)"/>
                    <path id="Path_307" d="M318.606 271.441a20.387 20.387 0 0 0-3.42.9 21.276 21.276 0 0 1-2.514.981 19.691 19.691 0 0 0 3.761-.9c.8-.322 1.299-.909 2.173-.981z" class="cls-23" transform="translate(-254.876 -268.44)"/>
                    <path id="Path_308" d="M294.025 279.6a24.5 24.5 0 0 0-4.957 2.042c-.866.38-1.58 1.157-2.466 1.44a10.233 10.233 0 0 0 4.179-1.773c.519-.345 2.987-1.894 3.244-1.709z" class="cls-23" transform="translate(-259.594 -266.966)"/>
                </g>
                <path id="Path_309" d="M291.711 286.31a30.345 30.345 0 0 1 8.188 5.979l42.465-18.3a9.95 9.95 0 0 0-.994-1.15q-.234-.239-.523-.5c-.055-.051-.119-.1-.177-.155-.145-.128-.29-.254-.453-.385-.125-.1-.263-.2-.4-.3-.112-.084-.219-.166-.338-.25-.2-.139-.413-.275-.631-.411-.071-.044-.137-.089-.21-.132s-.125-.083-.194-.122l-.006.013a13.175 13.175 0 0 0-10.577-1.059c-5.849 1.7-27.292 8.692-43.467 14a28.3 28.3 0 0 1 7.317 2.772z" class="cls-26" transform="translate(-232.061 -144.113)"/>
                <g id="Group_41" transform="translate(34.565 120.027)">
                    <path id="Path_310" d="M359.333 298.048l-89.985-24.756s4.158-10.355 17.757-8.1 82.626 16.171 82.626 16.171z" class="cls-22" transform="translate(-269.348 -264.87)"/>
                    <path id="Path_311" d="M362.588 289.7c-4.945-.672-8.752-3.689-13.349-5.3-10.53-3.7-21.521 1.762-32.038-2.6-5.313-2.2-8.678-6.047-14.713-6.8-4.986-.626-9.939-1.221-14.941-1.7-3.2-.308-8.081-.1-10.816-2.152a16.128 16.128 0 0 1-3.346-3.441 14.211 14.211 0 0 0-4.035 5.091l89.985 24.756 4.748-7.617c-.501-.09-.997-.173-1.495-.237z" class="cls-23" transform="translate(-269.348 -264.36)"/>
                    <path id="Path_312" d="M363.152 289.306s-1.957-10.714-7.01-10.47-15.3 3.135-10.4 16.686z" class="cls-24" transform="translate(-255.758 -262.344)"/>
                    <path id="Path_313" d="M352.094 283.223c-4.984 1.462-4.6 7.455-4.057 10.523l1.725-.617c-.942-2.449-1.1-7.018 3.04-8.329 3.526-1.118 5.566 2.78 5.964 5.115l1.1-.391c-.498-2.244-2.309-7.903-7.772-6.301z" class="cls-25" transform="translate(-255.165 -261.6)"/>
                    <path id="Path_314" d="M353.141 286.822c-2.411.706-2.606 3.282-2.42 5.1l1.234-.44c-.312-1.287-.195-2.788 1.724-3.4 1.6-.509 2.346.654 2.7 1.817l.942-.337c-.485-1.447-1.629-3.489-4.18-2.74z" class="cls-25" transform="translate(-254.633 -260.927)"/>
                    <path id="Path_315" d="M280.269 267.167a1.359 1.359 0 0 0 .277.014c2.367 2.249 6.39 2.047 9.469 2.3a27.5 27.5 0 0 1 5.458.789c1.372.393 2.461 1.2 3.774 1.657-.061-.021.137.091.077.065-1.313-.667-3.206-.648-4.677-.879a41.878 41.878 0 0 0-6-.419 13.5 13.5 0 0 1-5.816-1.138 4.167 4.167 0 0 1-1.672-1.456c-.359-.479-.278-.791-.89-.933z" class="cls-23" transform="translate(-267.372 -264.454)"/>
                    <path id="Path_316" d="M306.845 273.173c3.724.28 7.165-.209 10.829.883 2.577.768 5.015 1.93 7.565 2.58-3.283-.254-6.047-1.415-9.2-2.17-2.932-.7-5.857-.686-8.858-1.071-.09-.351-.101-.009-.336-.222z" class="cls-23" transform="translate(-262.563 -263.368)"/>
                    <path id="Path_317" d="M320.58 277.733c2.262.157 4.529.2 6.77.36 1.553.112 3.06.776 4.582.756a37.494 37.494 0 0 1-6.074-.095c-1.791-.22-3.545-1.07-5.278-1.021z" class="cls-23" transform="translate(-260.077 -262.543)"/>
                    <path id="Path_318" d="M333.055 276.473c2.866 1.2 6.091.829 9.028 1.61a16.9 16.9 0 0 1 5.38 2.671c-2.485-.5-4.786-1.522-7.336-1.931-2.639-.423-4.861-1.656-7.072-2.35z" class="cls-23" transform="translate(-257.82 -262.771)"/>
                    <path id="Path_319" d="M339.325 280.7a11.686 11.686 0 0 1 6.69 2.11 22.726 22.726 0 0 0-3.7-1.136 17.7 17.7 0 0 0-2.99-.974z" class="cls-23" transform="translate(-256.685 -262.006)"/>
                    <path id="Path_320" d="M298.158 269.149c1.7 1.087 4.192.3 6.1.534a3.993 3.993 0 0 1 2.247.672c.365.321.461.835.837 1.163-2.514-2.318-6.548-.342-9.184-2.369z" class="cls-23" transform="translate(-264.135 -264.096)"/>
                    <path id="Path_321" d="M304.259 274.473a11.6 11.6 0 0 1 4.209.616 8.239 8.239 0 0 0 2.623 1.054c-1.419.81-2.264.176-3.561-.434-1.223-.575-2.107-.785-3.271-1.236z" class="cls-23" transform="translate(-263.031 -263.132)"/>
                    <path id="Path_322" d="M311.54 277.566a36.069 36.069 0 0 1 6.292.572c1.39.354 2.93 1.118 4.195 1.14-.993-.069-1.993-.017-2.957-.1a24.92 24.92 0 0 1-2.467-.633c-.87-.156-1.833-.211-2.7-.358a12.077 12.077 0 0 1-1.2-.3c-.293-.075-1.476-.271-1.163-.321z" class="cls-23" transform="translate(-261.723 -262.573)"/>
                    <path id="Path_323" d="M289.6 267.261a28.521 28.521 0 0 1 4.729.659 30.543 30.543 0 0 0 3.537.9 27.208 27.208 0 0 1-5.142-.6c-1.139-.309-1.959-.998-3.124-.959z" class="cls-23" transform="translate(-265.683 -264.438)"/>
                    <path id="Path_324" d="M323.247 273.948c2.2.148 4.416 1.162 6.513 1.789 1.134.339 2.141 1.188 3.276 1.4a12.928 12.928 0 0 1-5.451-1.555c-.708-.346-4.051-1.902-4.338-1.634z" class="cls-23" transform="translate(-259.595 -263.233)"/>
                </g>
                <path id="Path_325" d="M327.322 283.189c3.636-5.578 10.832-5.53 17.053-6.907-21.163-4.219-49.134-9.742-57.27-11.09-13.6-2.254-17.757 8.1-17.757 8.1l59.443 16.354c-1.884-1.552-2.934-4.206-1.469-6.457z" class="cls-26" transform="translate(-234.783 -144.843)"/>
                <path id="Path_326" d="M276.574 236.225s20.237-10.284 38.595-8.876a149.746 149.746 0 0 1 33.021 6.39s-4.546 42.65-35.454 42.65-36.162-40.164-36.162-40.164z" class="cls-27" transform="translate(-233.476 -151.656)"/>
                <path id="Path_327" d="M276.574 235.226a142.826 142.826 0 0 0 34.675 7.514c18.358 1.407 36.94-10 36.94-10s-4.546 42.65-35.454 42.65-36.161-40.164-36.161-40.164z" class="cls-28" transform="translate(-233.476 -150.657)"/>
                <path id="Path_328" d="M335.451 251.859c-7.938 2.432-16.368 2.2-24.55 1.248-11-1.28-26.12-4.11-33.4-13.671 2.7 10.959 11.279 34.741 35.069 34.741 17.647 0 26.692-13.9 31.211-25.83a51.061 51.061 0 0 1-8.33 3.512z" transform="translate(-233.308 -149.445)" style="isolation:isolate;mix-blend-mode:multiply" fill="#514c53" opacity="0.75"/>
                <path id="Path_329" fill="#6b676d" d="M348.189 233.739a149.746 149.746 0 0 0-33.021-6.39c-18.358-1.408-38.595 8.876-38.595 8.876a142.823 142.823 0 0 0 34.675 7.514c18.359 1.407 36.941-10 36.941-10z" transform="translate(-233.476 -151.656)"/>
                <path id="Path_330" d="M342.1 233.817a127.685 127.685 0 0 0-28.148-5.448c-15.649-1.2-32.9 7.566-32.9 7.566a121.762 121.762 0 0 0 29.559 6.405c15.645 1.201 31.489-8.523 31.489-8.523z" class="cls-27" transform="translate(-232.666 -151.468)"/>
                <g id="Group_42" transform="translate(51.469 82.114)">
                    <path id="Path_331" d="M337.072 235.407a52.711 52.711 0 0 1-8.605-1.272 84.331 84.331 0 0 0-9.128-1.082 122.5 122.5 0 0 0-17.92.085c-6.115.487-10.56 1.625-17.757 2.975 5.538 2.756 20.954 5.065 29.059 5.515 12.279.681 24.351-6.221 24.351-6.221z" class="cls-31" transform="translate(-283.662 -232.766)"/>
                    <path id="Path_332" d="M289.5 235.717s-.41.513.811.467 4.4-.4 3.738-.9a5.01 5.01 0 0 0-4.549.433z" class="cls-32" transform="translate(-282.617 -232.375)"/>
                    <path id="Path_333" d="M300.519 238.082s-.592.426.985.588 5.714.363 4.923-.237a8.4 8.4 0 0 0-5.908-.351z" class="cls-32" transform="translate(-280.631 -231.875)"/>
                    <path id="Path_334" d="M307.262 238.082s-.593.426.984.588 5.713.363 4.925-.237-4.313-1.133-5.909-.351z" class="cls-32" transform="translate(-279.411 -231.875)"/>
                    <path id="Path_335" d="M308.865 234.831s-.592.426.985.589 5.713.361 4.923-.237a8.4 8.4 0 0 0-5.908-.352z" class="cls-32" transform="translate(-279.121 -232.463)"/>
                    <path id="Path_336" d="M297.372 235.365s-.592.426.984.589 5.713.361 4.925-.239-4.313-1.131-5.909-.35z" class="cls-32" transform="translate(-281.201 -232.367)"/>
                    <path id="Path_337" d="M321.03 234.986s-.592.426.985.588 5.713.363 4.923-.237a8.4 8.4 0 0 0-5.908-.351z" class="cls-32" transform="translate(-276.92 -232.435)"/>
                    <path id="Path_338" d="M317.96 238.518c0 .209-.3.378-.678.378s-.679-.169-.679-.378.3-.378.679-.378.678.169.678.378z" class="cls-32" transform="translate(-277.701 -231.794)"/>
                    <path id="Path_339" d="M315.512 238.1c0 .209-.3.378-.678.378s-.678-.169-.678-.378.3-.378.678-.378.678.178.678.378z" class="cls-32" transform="translate(-278.144 -231.869)"/>
                    <ellipse id="Ellipse_19" cx=".678" cy=".378" class="cls-32" rx=".678" ry=".378" transform="translate(41.347 1.599)"/>
                    <path id="Path_340" d="M307.935 236.7c0 .209-.3.378-.679.378s-.678-.169-.678-.378.3-.378.678-.378.679.178.679.378z" class="cls-32" transform="translate(-279.515 -232.122)"/>
                    <ellipse id="Ellipse_20" cx=".678" cy=".378" class="cls-32" rx=".678" ry=".378" transform="translate(28.419 .876)"/>
                    <path id="Path_341" d="M306.657 239.4c0 .209-.3.378-.678.378s-.679-.169-.679-.378.3-.378.679-.378.678.171.678.378z" class="cls-32" transform="translate(-279.746 -231.634)"/>
                    <ellipse id="Ellipse_21" cx=".678" cy=".378" class="cls-32" rx=".678" ry=".378" transform="translate(15.781 6.011)"/>
                    <ellipse id="Ellipse_22" cx=".678" cy=".378" class="cls-32" rx=".678" ry=".378" transform="translate(14.705 4.739)"/>
                    <ellipse id="Ellipse_23" cx=".678" cy=".378" class="cls-32" rx=".678" ry=".378" transform="translate(46.026 3.736)"/>
                    <path id="Path_342" d="M303.808 233.566c0 .208-.3.378-.678.378s-.678-.17-.678-.378.3-.378.678-.378.678.169.678.378z" class="cls-32" transform="translate(-280.262 -232.69)"/>
                    <path id="Path_343" d="M300 234.488c-.085.191-.431.224-.774.073s-.553-.427-.469-.619.431-.224.773-.073.551.431.47.619z" class="cls-32" transform="translate(-280.934 -232.584)"/>
                    <ellipse id="Ellipse_24" cx=".678" cy=".378" class="cls-32" rx=".678" ry=".378" transform="translate(32.693 .634)"/>
                    <path id="Path_344" d="M294.069 236.837c0 .209-.3.378-.678.378s-.679-.169-.679-.378.3-.378.679-.378.678.169.678.378z" class="cls-32" transform="translate(-282.024 -232.098)"/>
                    <path id="Path_345" d="M319.343 235.59c.165.528-.42 1.183-1.31 1.462s-1.745.078-1.912-.451.42-1.183 1.311-1.462 1.745-.078 1.911.451z" class="cls-33" transform="translate(-277.793 -232.36)"/>
                    <path id="Path_346" d="M307.2 235.462c-.123.54-.96.81-1.87.6s-1.546-.814-1.422-1.353.96-.81 1.868-.6 1.548.813 1.424 1.353z" class="cls-33" transform="translate(-280.001 -232.536)"/>
                    <path id="Path_347" d="M297.2 234.94c.076.548-.612 1.1-1.535 1.223s-1.734-.216-1.809-.764.613-1.1 1.536-1.223 1.73.215 1.808.764z" class="cls-33" transform="translate(-281.819 -232.516)"/>
                    <path id="Path_348" d="M312.98 236.588c.058.42-.469.84-1.175.937s-1.327-.165-1.385-.585.469-.84 1.176-.938 1.327.166 1.384.586z" class="cls-34" transform="translate(-278.821 -232.184)"/>
                    <ellipse id="Ellipse_25" cx=".722" cy="1.215" class="cls-34" rx=".722" ry="1.215" transform="rotate(-73.38 12.087 -8.57)"/>
                    <path id="Path_349" d="M316.5 234.616c-.115.381-.727.536-1.37.344s-1.072-.658-.958-1.039.727-.536 1.371-.344 1.073.658.957 1.039z" class="cls-34" transform="translate(-278.144 -232.635)"/>
                    <path id="Path_350" d="M289.353 236.28c-.113.381-.727.535-1.37.344s-1.071-.658-.958-1.039.727-.536 1.371-.344 1.072.659.957 1.039z" class="cls-34" transform="translate(-283.057 -232.333)"/>
                    <path id="Path_351" d="M306.528 236.663c.076.391-.4.811-1.056.939s-1.253-.086-1.329-.477.4-.813 1.055-.94 1.254.087 1.33.478z" class="cls-34" transform="translate(-279.957 -232.154)"/>
                    <path id="Path_352" d="M321.641 236.983c.076.391-.4.811-1.056.939s-1.253-.086-1.33-.477.4-.812 1.056-.94 1.254.087 1.33.478z" class="cls-34" transform="translate(-277.223 -232.096)"/>
                </g>
                <path id="Path_353" d="M335.859 227.919c-4.791.218-1.892 6.48-1.892 6.48l1.074.384c3.649-1.85 5.61-7.083.818-6.864zm.622 2.994a.954.954 0 1 1-.664-1.218.981.981 0 0 1 .665 1.218z" class="cls-28" transform="translate(-223.247 -151.53)"/>
                <g id="Group_43" transform="translate(42.462 40.591)">
                    <path id="Path_354" d="M346.145 232.435h1.039c.03-.853.022-1.573.016-1.908-.111-5.5-2.2-32.921-32.5-32.921-31.275 0-37.2 22-38.271 28.747-.984 6.2-.063 12 2.01 12.676a5.378 5.378 0 0 0 1.653.3 2.377 2.377 0 0 0 1.672-.589c1.286-1.182.723-3.659.7-3.763a.523.523 0 0 0-1.019.239c.128.55.307 2.117-.389 2.755-.436.4-1.208.417-2.292.065-1.011-.329-2.387-4.694-1.3-11.518 1.038-6.538 6.792-27.866 37.239-27.866 17.427 0 25.1 9.559 28.472 17.576a40.01 40.01 0 0 1 2.97 16.207z" class="cls-35" transform="translate(-276.035 -197.605)"/>
                    <path id="Path_355" d="M335.763 229.747a3.757 3.757 0 0 1-.419 1.455h-.033a2.348 2.348 0 0 1-2.1-.9c-.339-.639.082-1.438.494-2a.523.523 0 1 0-.841-.621c-1.07 1.45-.9 2.491-.578 3.108a3.339 3.339 0 0 0 3.223 1.453c.644-.026.907-.733 1.13-1.944-.23-.525-.55-.612-.876-.551z" class="cls-35" transform="translate(-265.901 -192.201)"/>
                </g>
                <path id="Path_356" d="M278.6 229.359c-4.791.217-1.892 6.48-1.892 6.48l1.075.383c3.647-1.85 5.608-7.082.817-6.863zm.622 2.993a.954.954 0 1 1-.664-1.216.982.982 0 0 1 .663 1.215z" class="cls-28" transform="translate(-233.609 -151.27)"/>
                <g id="Group_44" transform="translate(42.463 40.591)">
                    <path id="Path_357" d="M346.159 230.881c.123-.011.234-.037.364-.037a4.319 4.319 0 0 1 .683.067v-.385c-.111-5.5-2.2-32.921-32.5-32.921-31.275 0-37.2 22-38.271 28.747-.892 5.619-.215 10.9 1.466 12.341a3.41 3.41 0 0 1 .594-.854c-.96-.938-2.015-5.1-1.027-11.322 1.038-6.538 6.792-27.866 37.239-27.866 17.427 0 25.1 9.559 28.472 17.576a40.06 40.06 0 0 1 2.98 14.654z" class="cls-35" transform="translate(-276.036 -197.605)"/>
                </g>
                <path id="Path_358" d="M372.038 312.659l-61.861-139.187v-10.238s32.891 71.01 61.861 149.425z" class="cls-17" transform="translate(-227.395 -163.234)"/>
                <g id="Group_45" transform="translate(35.717 89.756)">
                    <path id="Path_359" d="M339.361 276.659c-7.535-1.389-12.645 5.728-19.061 7.553-7.885 2.244-14.6-2.267-21.043-7.055-4.754-3.53-9.874-5.54-15.305-5.137-6.3.468-13.2.141-13.613-7.916-.279-5.444 3.264-7.768 4.656-12.313a15.429 15.429 0 0 0-1.293-11.036c2.742 3.093 5.751 5.23 7.147 9.508 1 3.07.811 10.137 5.948 8.118 4.358-1.714 5.011-9.052 8.286-12.049 4.241-3.881 10.653-3.445 16.323-3.471-5.79 1.166-10.719 11.181-2.2 13.459 3.183.85 5.992-1.063 9.131-.394 3.832.816 4.555 3.333 6.034 6.313 2.86-6.186 1.657-10.467 9.408-12.583 6.508-1.775 10.671-10.42 10.671-10.42-3.869 6.3 9.5 13.214 10.91 22.614a11.254 11.254 0 0 1-2.2 8.743c-1.116 1.43-2.9 2.214-4.348 3.453a12.854 12.854 0 0 1-9.451 2.613z" class="cls-16" transform="translate(-270.324 -239.237)"/>
                    <path id="Path_360" fill="#ff8a6c" d="M341.469 248.143a12.078 12.078 0 0 1-5.674 4.151c-2.647.878-5.252 1.115-6.893 3.441-2.677 3.8-1.926 7.858-6.812 10.082.576-3.243-2.377-4.478-5.361-5.784-3.254-1.423-6.006-.708-9.111-.083-3.451.7-6.474.82-8.635-2.595-2.12-3.347-1.587-7.077-.007-10.15a16.125 16.125 0 0 0-6 5.7c-1.442 2.78-.38 6.241-2.706 8.792-4.645 5.1-11.78-1.855-11.783-7.226-2.76 1.917-5.508 6.722-3.045 9.781 3.6 4.474 10.5 2.606 15.173 1.9 5.327-.8 7.139.317 10.614 4.67 3.662 4.588 8.346 5.352 13.429 3.428 4.171-1.578 7.418-4 11.831-4.965 4.075-.893 8.746-.415 12.65-1.755 3.459-1.187 6.271-3.552 7.1-7.156 1-4.357-.579-6.228-3.6-9.395a3.186 3.186 0 0 1-1.17-2.836z" transform="translate(-269.572 -237.795)"/>
                    <path id="Path_361" d="M292.223 251.686c-4.635 6.234 4.084 13.444 8.886 17.34 3.122 2.533 8.288 2.259 9.226-1.906 1.128-5.007-5.859-2.857-8.4-3.114-3.456-.35-6.461-3.041-8.5-5.6-1.307-1.631-2.806-5.267-1.212-6.72z" class="cls-31" transform="translate(-266.599 -236.984)"/>
                    <path id="Path_362" d="M331.838 251.841c1.913 3.326 2.907 6.7.377 9.565-1.431 1.618-7.993 4.833-10.063 1.37-1.826-3.054 4.732-4.241 6.37-5.1 2.704-1.416 2.251-3.563 3.316-5.835z" class="cls-31" transform="translate(-261.003 -236.956)"/>
                    <path id="Path_363" d="M277.521 255.9c-1.546 2.143-2.845 4.792.106 6.747 1.612 1.068 5.876 2.843 7.074.72-2.982-.817-8.2-3.548-7.64-7.446.339-.091.108-.012.46-.021z" class="cls-31" transform="translate(-269.322 -236.226)"/>
                </g>
            </g>
            <path id="Path_364" d="M160.293 274.05l-11.67-.546c-1.245.443-10.04 2.972-11.071 3.8-.144-.608-.288-1.242-.426-1.889H75.5c-.059.556-15.8-1.912-11.48 4.313 4.81 5.731 9.546 8.189 16.027 10.7 31.727 12.278 57.931-2.826 58.285-7.008a21.167 21.167 0 0 1 4.58-3.017 16.1 16.1 0 0 1 7.028-1.057c2.331.087 4.661.321 6.982.55a12.4 12.4 0 0 0 3.218-.053c2.629-.537 6.982-1.586 6.749-3.688-.077-.7-3.956-1.789-6.596-2.105z" class="cls-6" transform="translate(-13.228 6.103)"/>
            <g id="Group_54" transform="translate(52.892 193.901)">
                <path id="Path_365" d="M101.621 210.032s.17-6.658.933-7.591 12.894 7.21 15.946 11.451 24.005 47.331 20.782 66.332c0 0 .266 1.7-3.97.083a6.807 6.807 0 0 0-8.387 3.011c-.024.042-.046.086-.07.13-2.29 4.368-.975-4.794-.975-4.794s1.74-2.141 6.871-2.8c.946-.121.255-4.877-1.611-14.971-.916-4.952-3.7-14.959-7.592-26.169-4.039-11.641-9.319-24.446-17.94-26.973l-1.078 3.315a6.05 6.05 0 0 0-2.909-1.024z" class="cls-37" transform="translate(-59.179 -200.67)"/>
                <path id="Path_366" d="M107 204.561c.751.405 1.588 1 2.541 1.61 3.369 2.39 6.891 5.3 8.347 7.323 3.054 4.241 24.005 47.331 20.782 66.332 0 0 .266 1.7-3.97.083a6.876 6.876 0 0 0-6.942 1.228c.074-.649.139-1.1.139-1.1a23.912 23.912 0 0 1 8.44-2.622c.946-.12.254-4.877-1.612-14.971-.915-4.952-3.7-14.959-7.591-26.167-3.69-10.638-9.99-22.422-17.356-26.273a14.6 14.6 0 0 0-2.789-1.861c-.17-.3-1.993-.8-1.993-.8.32-.401 1.954-2.715 2.004-2.782z" class="cls-38" transform="translate(-58.568 -200.273)"/>
                <path id="Path_367" d="M111.657 215.216s6.447-9.246 10.179-8.4 16.753 17.431 22.606 31.554c5.147 12.42 10 30.545 6.422 42.611-.491 1.655-1.206 4.254-1.969 4.592-.593.508-.364.161-7.634-.32-7.7-.509-9.478 2.164-13.423 5.026 0 0-2.227-3.435-1.082-4.962 1.11-1.48 4.55-6.068 15.652-4.379a1.058 1.058 0 0 0 1.226-.912c.54-4.52 2-22.368-5.77-40.471-8.987-20.951-16.876-26.719-16.876-26.719s-3.224 1.7-3.648 8.482c0 .005-7.716-3.465-5.683-6.102z" class="cls-39" transform="translate(-57.425 -199.875)"/>
                <path id="Path_368" d="M121.517 209.843c.524-.53.89-1.281 1.88-1.281 5.4 5 14.84 18.049 19.58 29.485 5.147 12.42 10 30.545 6.422 42.611-.491 1.654-1.206 4.254-1.969 4.591-.593.508-.364.161-7.634-.32-7.7-.509-9.478 2.163-13.423 5.026 0 0-2.227-3.435-1.082-4.962 1.11-1.48 4.55-6.068 15.652-4.379a1.058 1.058 0 0 0 1.226-.912c.54-4.519 2-22.368-5.77-40.471-8.987-20.951-16.876-26.719-16.876-26.719l-.1.061c0-.068-.013-.144-.018-.214.777-.719 1.371-1.767 2.112-2.516z" class="cls-37" transform="translate(-55.961 -199.549)"/>
                <g id="Group_47" transform="translate(64.94 7.146)">
                    <path id="Path_369" d="M136.463 282.772c7.271.481 7.041.827 7.634.32.762-.338 1.477-2.937 1.967-4.592 3.576-12.066-2.306-29.844-7.453-42.263-3.009-7.262-9.8-17.347-14.059-23.539-2.2-3.2-3.882-5.715-3.882-5.715 4.3 2.058 16.472 17.829 22.077 31.352 5.147 12.42 10 30.545 6.422 42.611-.491 1.655-1.206 4.254-1.969 4.592-.593.508-.364.161-7.634-.32-7.7-.509-9.478 2.163-13.423 5.026a9.244 9.244 0 0 1-1.4-3.75c2.931-2.308 5.214-4.152 11.72-3.722z" class="cls-38" transform="translate(-120.672 -206.981)"/>
                </g>
                <path id="Path_370" d="M107.726 212.028l3.054-7.337 1.569 1.145-3.308 6.743z" class="cls-40" transform="translate(-58.075 -200.25)"/>
                <path id="Path_371" d="M103.19 210.8l1.145-8.344-1.739-.562-.975 8.694z" class="cls-40" transform="translate(-59.179 -200.757)"/>
                <path id="Path_372" d="M114.54 207.206l-1.412.613a14.024 14.024 0 0 0-5.2-3.974 8.552 8.552 0 0 0-5.724-.5l-.892-1.67s3.085-1.782 8.026.179a10.289 10.289 0 0 1 5.202 5.352z" class="cls-39" transform="translate(-59.236 -200.93)"/>
                <path id="Path_373" d="M102.932 208.1s19.467-.805 25.956 18.406 3.308 30.537 4.835 41.351 4.962 20.359 2.672 24.557-12.342 11.069-19.022 10.434-48.922-4.2-50.068-13.869 6.489-41.479 10.434-51.4 10.522-33.486 25.193-29.479z" class="cls-39" transform="translate(-65.41 -199.715)"/>
                <g id="Group_48" transform="translate(12.187 7.931)">
                    <path id="Path_374" d="M84.043 248.493a24.806 24.806 0 0 0 12.529 4.6 31.029 31.029 0 0 0 12.228-1.953c4.777-2.06 7.834-8.056 8.56-13.736 1.18-9.226 1.5-16.011 8.711-13.938-7.4-16.067-24.733-15.364-24.733-15.364-14.671-4.008-21.248 19.552-25.192 29.477-.046.116-.1.253-.143.376 1.721 4.15 3.197 6.982 8.04 10.538z" class="cls-41" transform="translate(-76.002 -207.646)"/>
                </g>
                <path id="Path_375" d="M78.544 250.68c4.214 2.532 8.687 4.587 12.927 7.07 3.7 2.165 7.631 4.235 11.925 4.844 8.758 1.24 16.235-2.852 21.537-9.617 2.695-3.438 5.22-6.963 7.977-10.362l.189-.235c.348 7.327-.2 13.335.624 19.192 1.527 10.815 4.962 20.358 2.672 24.557s-12.342 11.069-19.022 10.434-48.922-4.2-50.068-13.869c-.764-6.453 2.382-22.759 5.731-35.848a48.4 48.4 0 0 0 5.508 3.834z" transform="translate(-65.41 -193.43)" style="isolation:isolate;mix-blend-mode:multiply" fill="#a86a41" opacity="0.32"/>
                <path id="Path_376" fill="#af7650" d="M118.942 223.708c-2.7 2.778-2.145 6.113-2.563 9.554-.338 2.776-1.81 9.97-4.753 12.712-6.585 6.135-12.911 5.09-21.136 2.824-4.3-1.186-11.289-4.9-12.477-8.8-1.017-3.344-1.187-4.2-.2-7.4 4.122-11.126 10.748-27.925 23.318-24.491 0 0 16.464-.668 24.154 14.174-2.59-.381-4.591-.381-6.343 1.427z" transform="translate(-63.606 -199.715)" style="isolation:isolate;mix-blend-mode:multiply" opacity="0.5"/>
                <path id="Path_377" fill="#7e4025" d="M120.155 282.586a156.752 156.752 0 0 0 .143-42.715c-1.462-11.8-2.136-23.568-14.523-29.051a31.147 31.147 0 0 0-13.432-2.8 11.381 11.381 0 0 1 6.038.079s19.467-.805 25.956 18.406 3.308 30.537 4.835 41.351 4.962 20.358 2.673 24.557-12.342 11.069-19.022 10.434l-.13-.012c5.728-4.397 6.342-12.591 7.462-20.249z" transform="translate(-60.858 -199.714)"/>
                <path id="Path_378" fill="#683f34" d="M123.165 257.431a7.1 7.1 0 0 0 1.225-2.589c1.035.019 3 .795 3.208 2.25 0 0-.128.824-.289 2.056-1.936 1.154-3.768 2.574-5.692 3.668a6.2 6.2 0 0 1-4.753.4q.1-1.408.169-2.813s2.654-.046 6.132-2.972z" transform="translate(-56.421 -191.175)"/>
                <path id="Path_379" fill="#986245" d="M117.036 273.923c.666-4.562 1.076-9.061 1.3-13.542a5.83 5.83 0 0 0 5.7.155 10.063 10.063 0 0 0 3.913-5.011 2.219 2.219 0 0 1 .972 1.443s-1.157 7.449-.954 11.324c.339 6.457 3.372 10.306.764 15.459-2.16 4.268-12.342 11.069-19.022 10.434l-.13-.012c5.721-4.398 6.338-12.591 7.457-20.25z" transform="translate(-57.74 -191.051)"/>
                <path id="Path_380" d="M116.956 276.692a10.036 10.036 0 0 0 8.146.711 6.735 6.735 0 0 0 3.166-3.03 8.371 8.371 0 0 1-.719 5.477c-1.82 3.595-9.67 9.678-15.3 9.143-.031-.003 4.413-3.563 4.707-12.301z" transform="translate(-57.256 -187.64)" style="isolation:isolate;mix-blend-mode:multiply" fill="#6f3b25" opacity="0.32"/>
                <path id="Path_381" fill="#ca8d66" d="M87.512 288.318s29.194 7.536 32.241 1.434-10.272-19.586-28.678-21.537c-7.784-.824-15.037-.525-19.835 1.448-5.506 2.264-7.224 8.5-3.777 11.446 5.406 4.623 16.97 6.471 20.049 7.209z" transform="translate(-65.682 -188.833)"/>
                <g id="Group_49" transform="translate(5.069 78.953)">
                    <path id="Path_382" d="M104.49 276.068a122.583 122.583 0 0 0-12.949-3.261 71.636 71.636 0 0 0-13.018-1.2c-3.342.027-6.388 0-8.548-1.717.163-.077.318-.162.488-.232 4.8-1.973 12.052-2.272 19.835-1.448a43 43 0 0 1 21.215 8.284 16.022 16.022 0 0 1-7.023-.426z" transform="translate(-69.975 -267.785)" style="isolation:isolate;mix-blend-mode:multiply" fill="#b68d66" opacity="0.65"/>
                </g>
                <path id="Path_383" d="M96.911 287.451c3.372-1.637 5.269-5.248 7.42-8.157.916-1.239 2.009-2.583 2.963-4.012 5.91 4.568 8.9 9.878 7.288 13.113-1.729 3.461-11.869 2.534-20.322 1.084q.8-.8 1.54-1.671a4.371 4.371 0 0 0 1.111-.357z" class="cls-50" transform="translate(-60.511 -187.476)"/>
                <path id="Path_384" d="M87.808 272.884c15.331 1.625 27.123 11.25 28.878 17.947-8.278 2.035-29.175-3.357-29.175-3.357-3.079-.738-14.643-2.586-20.049-7.21a5.225 5.225 0 0 1-1.735-4.632 9.766 9.766 0 0 1 2.246-1.3c4.798-1.974 12.051-2.273 19.835-1.448z" class="cls-39" transform="translate(-65.681 -187.988)"/>
                <path id="Path_385" d="M69.119 275.314c5.241 5.613 16.077 6.993 23.037 8.438 4.972 1.032 10.3 2.168 15.387 2.257a25.416 25.416 0 0 0 4.844-.425 10.036 10.036 0 0 1 1.755 3.229c-7.562 1.695-26.651-2.8-26.651-2.8-2.813-.614-13.377-2.153-18.315-6a4.148 4.148 0 0 1-1.585-3.855 9.335 9.335 0 0 1 1.528-.844z" class="cls-41" transform="translate(-65.343 -187.47)"/>
                <path id="Path_386" d="M70.386 272.546s17.788-.8 40.279 7.828c0 0 7.812-2.361 8.493-7.847s-.847-20.57-4.155-23.378-35.749-10.991-42.412-6.2c-5.543 3.987-5.852 26.198-2.205 29.597z" class="cls-51" transform="translate(-65.267 -193.593)"/>
                <path id="Path_387" d="M98.816 261.091a37.307 37.307 0 0 1 4.24-8.976c.2-.28.416-.549.633-.814a24.46 24.46 0 0 0 6.447-3.3c3.282 2.891 4.795 17.874 4.117 23.34-.681 5.487-8.493 7.847-8.493 7.847-3.7-1.422-7.276-2.583-10.666-3.538 1.773-4.722 1.936-9.741 3.722-14.559z" class="cls-50" transform="translate(-60.361 -192.412)"/>
                <path id="Path_388" d="M70.5 245.342c6.67-4.786 39.6 2.432 40.776 6.609 6.786 24.174-.607 28.01-.607 28.01-22.491-8.633-40.278-7.829-40.278-7.829-3.119-2.901-3.346-19.513.109-26.79z" class="cls-39" transform="translate(-65.267 -193.18)"/>
                <path id="Path_389" d="M83.951 263.94a86.6 86.6 0 0 0 18.5 1.542c2.98-.045 6.646.41 9.848-.22.333 9.363-3.213 11.2-3.213 11.2-20.956-8.045-37.529-7.295-37.529-7.295-1.638-1.526-2.419-7.121-2.21-12.924a28.361 28.361 0 0 0 14.604 7.697z" class="cls-41" transform="translate(-65.026 -190.92)"/>
                <path id="Path_390" fill="#a86f49" d="M124.59 221.267s-7.87-2.093-9.078 6.813-.579 26.1-24.711 19.69c-22.885-6.075-10.287-25.046-5.932-33.558 4.471-8.737 13.234-9.18 26.55-4.835 8.71 2.842 13.171 11.89 13.171 11.89z" transform="translate(-63.548 -199.889)"/>
                <path id="Path_391" fill="#b5805d" d="M83.979 215.918a20.619 20.619 0 0 0 4.845 5.532c6.259 4.969 14.663 8.016 22.73 7.475.8-.054 1.722-.128 2.648-.263-.953 8.773-2.021 22.362-23.272 16.72-19.774-5.251-11.703-20.62-6.951-29.464z" transform="translate(-63.408 -198.218)"/>
                <path id="Path_392" d="M117.738 221.456a8.629 8.629 0 0 0-2.249-1.8 48.35 48.35 0 0 0-8.191-5.8c-3.422-1.879-6.788-2.651-10.431-3.916-2.173-.755-4.17-1.861-6.3-2.636 4.694-1.331 10.835-.429 18.488 2.069 8.71 2.841 13.171 11.889 13.171 11.889a8.538 8.538 0 0 0-4.488.194z" class="cls-41" transform="translate(-61.18 -199.887)"/>
                <g id="Group_51" transform="translate(17.235 9.446)">
                    <g id="Group_50">
                        <path id="Path_393" d="M98.245 246.377a.51.51 0 0 1-.475-.541.517.517 0 0 1 .542-.475 18.332 18.332 0 0 0 1.991.024.489.489 0 0 1 .533.484.509.509 0 0 1-.485.531c-.261.013-.529.019-.807.02-.417.001-.85-.012-1.299-.043zm-2.078-.223q-.985-.145-2.049-.367a.509.509 0 1 1 .209-1q1.031.216 1.986.354a.509.509 0 0 1-.073 1.013c-.024.005-.048.002-.073 0zm5.695-.412a.509.509 0 0 1 .384-.608 6.841 6.841 0 0 0 1.787-.653.509.509 0 0 1 .489.893 7.879 7.879 0 0 1-2.05.752.462.462 0 0 1-.112.013.51.51 0 0 1-.499-.397zm-9.763-.426q-.558-.144-1.133-.306c-.3-.084-.586-.169-.867-.259a.509.509 0 1 1 .308-.97c.269.085.548.169.833.248q.565.158 1.114.3a.51.51 0 0 1-.128 1 .527.527 0 0 1-.126-.014zm13.425-1.294a.508.508 0 0 1-.084-.715c.071-.09.138-.183.2-.279q.441-.675.835-1.392a.509.509 0 1 1 .892.491q-.413.749-.874 1.457c-.08.123-.165.24-.255.353a.508.508 0 0 1-.714.084zm-17.392.013a19.121 19.121 0 0 1-1.9-.912.51.51 0 0 1 .495-.892 17.317 17.317 0 0 0 1.794.863.509.509 0 0 1-.195.979.517.517 0 0 1-.194-.039zm-3.675-2.07a11.816 11.816 0 0 1-1.577-1.447.509.509 0 0 1 .756-.681 10.586 10.586 0 0 0 1.44 1.319.509.509 0 0 1-.619.809zm23.168-1.454a.51.51 0 0 1-.257-.673c.266-.6.521-1.225.758-1.87a.509.509 0 0 1 .954.352c-.243.665-.508 1.316-.783 1.933a.51.51 0 0 1-.672.257zm-26.011-1.736a9.715 9.715 0 0 1-.855-1.982.509.509 0 1 1 .973-.3 8.765 8.765 0 0 0 .765 1.774.509.509 0 1 1-.883.505zm27.49-2.088a.51.51 0 0 1-.338-.637c.2-.651.38-1.3.546-1.951a.509.509 0 1 1 .986.25c-.17.665-.354 1.332-.559 2a.507.507 0 0 1-.487.36.544.544 0 0 1-.152-.023zm-28.764-2a12.668 12.668 0 0 1-.063-1.275q0-.423.025-.854a.5.5 0 0 1 .539-.478.51.51 0 0 1 .478.539c-.017.267-.024.53-.024.794a11.707 11.707 0 0 0 .057 1.174.508.508 0 0 1-.455.557h-.052a.508.508 0 0 1-.505-.455zm29.824-1.965a.508.508 0 0 1-.393-.6c.143-.679.27-1.349.384-2a.5.5 0 0 1 .588-.413.508.508 0 0 1 .415.588c-.116.661-.244 1.34-.391 2.032a.507.507 0 0 1-.5.405.463.463 0 0 1-.104-.01zm-29.191-1.665a.508.508 0 0 1-.407-.593c.12-.653.283-1.342.484-2.043a.509.509 0 0 1 .979.281c-.191.671-.347 1.325-.463 1.947a.508.508 0 0 1-.5.416.5.5 0 0 1-.093-.006zm29.927-2.367a.51.51 0 0 1-.431-.576l.073-.528q.108-.8.256-1.526a.509.509 0 0 1 1 .2c-.093.463-.176.947-.244 1.457l-.073.538a.511.511 0 0 1-.5.436c-.03.004-.055.001-.081-.001zm-28.9-1.6a.511.511 0 0 1-.3-.653c.239-.65.5-1.3.774-1.931a.509.509 0 0 1 .935.4c-.268.619-.521 1.246-.753 1.878a.508.508 0 0 1-.477.334.517.517 0 0 1-.179-.025zm29.657-2.428a.509.509 0 0 1-.327-.641 14.444 14.444 0 0 1 .8-1.969.509.509 0 1 1 .911.456 13.364 13.364 0 0 0-.743 1.827.509.509 0 0 1-.484.352.52.52 0 0 1-.156-.022zM83.574 223.3a.508.508 0 0 1-.235-.679c.3-.631.619-1.247.933-1.846a.509.509 0 0 1 .9.472c-.309.589-.619 1.2-.92 1.816a.507.507 0 0 1-.458.287.5.5 0 0 1-.22-.05zm29.782-2.356a.509.509 0 0 1-.093-.713 9.287 9.287 0 0 1 1.5-1.553.509.509 0 0 1 .644.789 8.371 8.371 0 0 0-1.339 1.384.508.508 0 0 1-.714.093zm-27.9-1.293a.507.507 0 0 1-.2-.691c.314-.568.62-1.112.911-1.627l.093-.168a.509.509 0 1 1 .887.5l-.093.167c-.289.514-.594 1.056-.907 1.621a.51.51 0 0 1-.446.262.5.5 0 0 1-.249-.06zm30.909-1.446a.51.51 0 0 1 .249-.677 9.072 9.072 0 0 1 2.065-.661.509.509 0 0 1 .192 1 7.9 7.9 0 0 0-1.832.586.509.509 0 0 1-.675-.248zm2.143-.569c-.523-.321-1.11-.68-1.748-1.064a.509.509 0 0 1 .526-.873c.64.386 1.231.746 1.756 1.07a.509.509 0 1 1-.534.867zm-31.051-1.568a.508.508 0 0 1-.2-.69 17.956 17.956 0 0 1 1.108-1.794.509.509 0 0 1 .831.588 16.833 16.833 0 0 0-1.045 1.691.509.509 0 0 1-.69.2zm27.487-.844c-.585-.3-1.194-.614-1.822-.929a.509.509 0 1 1 .456-.909c.632.316 1.246.629 1.834.934a.509.509 0 0 1-.28.959.52.52 0 0 1-.192-.052zm-3.763-1.8c-.631-.241-1.271-.479-1.916-.714a.508.508 0 1 1 .347-.955c.651.236 1.3.477 1.93.717a.509.509 0 0 1-.181.985.535.535 0 0 1-.183-.033zm-21.453-.755a.509.509 0 0 1 0-.72 10.342 10.342 0 0 1 1.662-1.368.509.509 0 0 1 .559.851 9.4 9.4 0 0 0-1.5 1.232.506.506 0 0 1-.719 0zm17.612-.64q-1-.342-1.933-.628a.509.509 0 0 1 .3-.974q.953.292 1.966.64a.509.509 0 0 1-.165.99.5.5 0 0 1-.172-.028zm-3.884-1.185q-1.022-.266-1.969-.453a.509.509 0 1 1 .2-1q.976.193 2.026.468a.509.509 0 0 1-.128 1 .481.481 0 0 1-.133-.014zm-10.442-.583a.509.509 0 0 1 .3-.653 10.586 10.586 0 0 1 2.082-.529.508.508 0 1 1 .154 1.005 9.714 9.714 0 0 0-1.884.478.482.482 0 0 1-.176.032.509.509 0 0 1-.48-.333zm6.489-.187a18.072 18.072 0 0 0-1.989-.128.509.509 0 0 1 0-1.018 19.234 19.234 0 0 1 2.1.133.509.509 0 0 1-.059 1.014.49.49 0 0 1-.055 0z" class="cls-51" transform="translate(-80.277 -208.929)"/>
                    </g>
                </g>
                <g id="Group_52" transform="translate(8.258 52.431)">
                    <path id="Path_394" d="M109.065 253.851l-.637 5.28-35.753-8.588.573-5.216s26.02 4.007 35.817 8.524z" class="cls-54" transform="translate(-72.675 -245.327)"/>
                    <path id="Path_395" d="M72.905 247.759l.08-.729c6.769 1.052 30.558 7.154 35.8 8.51l-.1.821c-1.841-.424-29.501-6.773-35.78-8.602z" class="cls-55" transform="translate(-72.633 -245.019)"/>
                    <path id="Path_396" d="M76.407 248.075v6.094l-3.085-.732 1.145-5.821z" class="cls-56" transform="translate(-72.558 -244.913)"/>
                </g>
                <g id="Group_53" transform="translate(18.953 30.808)">
                    <path id="Path_397" d="M105.691 232.83l-.471 3.914-23.489-5.859.424-3.866s16.275 2.462 23.536 5.811z" class="cls-54" transform="translate(-81.731 -227.018)"/>
                    <path id="Path_398" d="M81.9 228.821l.06-.541c5.018.781 19.638 4.8 23.521 5.8l-.073.608c-1.362-.313-18.853-4.511-23.508-5.867z" class="cls-55" transform="translate(-81.7 -226.79)"/>
                    <path id="Path_399" d="M84.912 229.162v5.938l-3.006-.713 1.116-5.671z" class="cls-56" transform="translate(-81.699 -226.711)"/>
                </g>
                <path id="Path_400" d="M96.946 281.6l-.636 4.114-4.241-4.453z" class="cls-57" transform="translate(-60.908 -186.395)"/>
                <path id="Path_401" d="M79.818 277.219l-1.4 3.9-3.732-4.492z" class="cls-57" transform="translate(-64.053 -187.233)"/>
                <path id="Path_402" d="M99.365 279.341l-.509 3.334-8.44-.913.424-3.413z" class="cls-51" transform="translate(-61.207 -186.921)"/>
                <path id="Path_403" d="M82.551 274.979L82 278.51l-8.822-1.149.212-3.2z" class="cls-51" transform="translate(-64.326 -187.678)"/>
                <path id="Path_404" d="M103.207 258.563l-1.357 5.429-8.991-1.919 1.646-5.63z" class="cls-51" transform="translate(-60.765 -190.885)"/>
                <path id="Path_405" d="M84.364 254.66l-1.272 5.5-7.157-1.683 1.113-5.312z" class="cls-51" transform="translate(-63.827 -191.478)"/>
                <path id="Path_406" d="M100.985 259.8s-4.085 9.52-4.085 12.383-.053 12.171-.053 12.171l-4.447-.548s-.652-11.178-.27-12.258 4.146-12.807 4.146-12.807z" class="cls-57" transform="translate(-60.918 -190.469)"/>
                <path id="Path_407" d="M81.921 256.277S79.063 267 79.063 268.271s.377 11.452.377 11.452l-4.135-.383s-.794-11.031-.615-11.832c.205-.924 3.065-12.215 3.065-12.215z" class="cls-57" transform="translate(-64.057 -191.093)"/>
            </g>
            <circle id="Ellipse_26" cx="26.393" cy="26.393" r="26.393" class="cls-31" transform="rotate(-45 149.214 -232.797)"/>
            <path id="Path_408" d="M376 121.606c-18.1 0-33.824.557-53.387-.518-6.938-.383-19.238-4.122-12.584-8.811 5.547-3.909 19.431.464 24.878 4.09-5.946-3.45-21.073-10.8-17.38-18.157 3.344-6.657 24.326 9.7 25.23 15.218 0 0-9.652-24.815 2.932-26.057 15.2-1.5 8.811 22.587 6.08 26.155a25.566 25.566 0 0 1 3.4-5.258c1.966-2.373 5.7-5.837 9.462-3.458a5.018 5.018 0 0 1 2.278 3.53c.417 3.621-4.49 5.964-7.2 7.1 5.947-1.884 15.76-2.809 21.937-.55 4.112 1.505 3.473 6.718-5.646 6.716z" class="cls-8" transform="translate(31.078 -27.591)"/>
            <path id="Path_409" d="M224.89 105.814c-19.078 0-35.655.588-56.28-.547-7.314-.4-20.278-4.345-13.264-9.288 5.847-4.12 20.484.49 26.224 4.312-6.268-3.636-22.214-11.39-18.32-19.141 3.525-7.017 25.643 10.226 26.6 16.042 0 0-10.175-26.159 3.092-27.467 16.028-1.58 9.287 23.809 6.408 27.571a26.971 26.971 0 0 1 3.582-5.543c2.073-2.5 6.01-6.153 9.973-3.644a5.293 5.293 0 0 1 2.4 3.721c.439 3.817-4.733 6.286-7.591 7.483 6.269-1.985 16.612-2.962 23.125-.58 4.339 1.587 3.661 7.083-5.949 7.081z" class="cls-8" transform="translate(3.069 -30.784)"/>
            <g id="Group_55" transform="translate(158.57 289.62)">
                <path id="Path_410" d="M198.232 320.957c-3.664-9.565-6.443-22.169-1.644-31.19 0 0-.89 18.787 10.7 31.014z" class="cls-7" transform="translate(-148.135 -280.574)"/>
                <path id="Path_411" d="M210.395 322.117l-12.173.236a50.407 50.407 0 0 1 11.59-40.37c-7.866 17.773-3.753 31.867.583 40.134z" class="cls-7" transform="translate(-147.478 -281.983)"/>
                <path id="Path_412" d="M209.589 320.378l-7.181.139c-8.392-17.515 14.2-28.894 14.2-28.894-10.882 13.022-12.192 22.912-7.019 28.755z" class="cls-4" transform="translate(-146.958 -280.239)"/>
                <path id="Path_413" d="M176.044 321.184c1.264-7.436-.763-18.208-8.274-29.782 0 0 16.637 11.355 15.491 29.642z" class="cls-7" transform="translate(-152.888 -280.279)"/>
                <path id="Path_414" d="M210.227 320.044c1.695-6.644 7.827-15.894 22.251-26.738 0 0-26.71 6.718-26.914 26.828z" class="cls-4" transform="translate(-146.049 -279.934)"/>
                <path id="Path_415" d="M177.279 320.14c-2.441-6.146-9-14.31-22.111-22.853 0 0 25.843 3.614 28.551 22.728z" class="cls-4" transform="translate(-155.168 -279.214)"/>
                <path id="Path_416" d="M176.4 321.428c9.424-13.734 1.562-31.574 1.562-31.574 8.136 11.347 10.792 20.984 8.1 31.386z" class="cls-4" transform="translate(-151.327 -280.559)"/>
                <path id="Path_417" d="M191.051 319.751c1.829-6.292 2.972-13.024-1.32-22.463 0 0 8.713 12.131 8.21 22.329z" class="cls-4" transform="translate(-148.914 -279.214)"/>
                <path id="Path_418" d="M183.956 322.461c1.836-7.229 5.143-25.108-1.245-39.249 0 0 11.664 19.985 8.325 39.111z" class="cls-7" transform="translate(-150.184 -281.761)"/>
                <path id="Path_419" d="M187.874 319.527c3.44-6.825-.463-14.34-3.745-20.55 0 0 13 9.914 11.027 20.408z" class="cls-4" transform="translate(-149.927 -278.908)"/>
                <path id="Path_420" d="M190.188 319.594c4.542-4.907 10.65-13.308 9.074-21.354a27.993 27.993 0 0 1 .085 21.176z" class="cls-4" transform="translate(-148.831 -279.041)"/>
            </g>
        </g>
        <g id="Group_57" transform="translate(20.895 47.673)" style="mix-blend-mode:overlay;isolation:isolate" opacity="0.55">
            <path id="Path_421" d="M430.317 326.985c16.4-15.23 30.112-33.573 38.974-54.189 12.147-2.668 19.234-6.222 19.234-6.222a54.214 54.214 0 0 1-14.639-6.023q1.391-4.306 2.487-8.7a30.708 30.708 0 0 0 8.3-3.548 42.1 42.1 0 0 1-6.885-2.682q1.226-6.115 1.875-12.372a28.769 28.769 0 0 0 4.226-1.829c-.31-.337-1.816-.694-3.94-1.383a132.862 132.862 0 0 0 .365-14.448 4.212 4.212 0 0 1 2.044-.925c-.732-.216-1.428-.431-2.11-.645q-.211-5.07-.807-10.06c.458-.081.9-.165 1.322-.25q-.744-.448-1.457-.94c-10.194-79.733-92.14-142.944-194.654-149.662a26.625 26.625 0 0 0-36.222 0C199.755 56.3 155.723 72.218 121.8 96.6a111.01 111.01 0 0 1-5.4-11.466 60.12 60.12 0 0 1-5.75 20.088A180.112 180.112 0 0 0 84.573 131.8l-.146.086h.074q-1.157 1.463-2.276 2.948c-.729-1.477-1.239-2.609-1.513-3.244-.274 2.309-.638 4.583-1.128 6.845a150.854 150.854 0 0 0-15.731 27.75c-3.7 3.767-6.949 6.234-13.622 10.2a89.364 89.364 0 0 0 9.75-.147q-1.9 5.534-3.317 11.216a100.968 100.968 0 0 1-10 4.115 40.067 40.067 0 0 0 8.612 2.037A132.412 132.412 0 0 0 53.1 209.45a39.028 39.028 0 0 1-7.9 4.582c2.775.066 5.278.118 7.624.11q-.267 6.533.106 13.058a118.26 118.26 0 0 1-11.735 3.9 81.51 81.51 0 0 0 12.281 2.671c.261 2.429.577 4.847.971 7.244l-9.167 10.5c-.968.289-1.957.573-2.985.847.633.15 1.254.275 1.882.417l-9.239 10.584-1.617-7.263-.039-.174L20.895 260l11.648 18.3 5.269-2.034-2.478-11.122 10.429-12.016q6.041 1.309 11.858 2.193 1.784 6.393 4.182 12.6c-.788.719-1.561 1.448-2.36 2.16 0 0 1.286.346 3.618.983A148.88 148.88 0 0 0 76.5 296.241a41.255 41.255 0 0 0 .5 6.5c-.537 3.165-1.007 6.349-1.268 9.549a7.728 7.728 0 0 0-1.929 4.478c-2.378.463-3.835 1.562-2.115 4.036 4.74 5.648 10.927 8.9 17.775 11.348a68.36 68.36 0 0 0 23.971 4.046c22.026 17.643 47.581 30.362 74.447 38.78a261.528 261.528 0 0 0 84.56 11.6c8.43-.221 16.781-.913 25.176-1.651l-.012-.033c1.162-.132 2.322-.276 3.483-.424l-.11.111c1.1-.13 2.191-.273 3.284-.436l.1-.1c.261-.037.518-.079.778-.116l-.141.1c28.325-4.412 56.213-12.505 81.54-26.15 6.031-3.25 11.941-6.7 17.665-10.463a7.423 7.423 0 0 0 1.277-.842c.41-.274.821-.543 1.228-.821 4.831-2.76 15.587.282 18.084-6 .754-1.108 1.134-1.242 2-1.369 5.057.027 16.654-7.181 3.532-11.4.024-.028 13.114 4.216-.008.001zM47.872 250.7l6.887-7.937q.438 2.464.965 4.9a80.269 80.269 0 0 1-7.852 3.037z" transform="translate(-20.895 -45.997)" style="mix-blend-mode:screen;isolation:isolate" fill="none"/>
            <path id="Path_422" d="M351.378 311.105c-.707 0-1.985.313-1.985 1.233s1.278 1.234 1.985 1.234 1.986-.313 1.986-1.234-1.277-1.233-1.986-1.233z" transform="translate(38.548 1.974)" style="mix-blend-mode:screen;isolation:isolate" fill="url(#radial-gradient)"/>
            <path id="Path_423" d="M367.165 305.617c-.7 0-2.238.247-2.238 1.222s1.538 1.221 2.238 1.221 2.239-.247 2.239-1.221-1.539-1.222-2.239-1.222z" transform="translate(41.358 .981)" style="mix-blend-mode:screen;isolation:isolate" fill="url(#radial-gradient-2)"/>
            <path id="Path_424" d="M371.544 302.263c-1.58 0-1.58 1.914 0 1.914s1.58-1.914 0-1.914z" transform="translate(42.341 .375)" style="mix-blend-mode:screen;isolation:isolate" fill="url(#radial-gradient-3)"/>
        </g>
    </g>
</svg>
