<svg xmlns="http://www.w3.org/2000/svg" width="82.405" height="72.79" viewBox="0 0 82.405 72.79">
    <defs>
        <style>
            .cls-1{fill:#e76f51}.cls-2{fill:#ff8a6c}.cls-3{fill:#ffb63b}.cls-4{fill:#fff}.cls-5{fill:#3b3735}
        </style>
    </defs>
    <g id="tickets" transform="translate(0 -28.001)">
        <path id="Path_830" d="M123.552 51.843a6.868 6.868 0 0 1-9.713-9.713l-6.13-6.13L72 71.708h46.7l12.361-12.361z" class="cls-1" transform="translate(-59.639 -6.625)"/>
        <path id="Path_831" d="M72 184.36h46.7L131.057 172l-50.816 4.12z" class="cls-2" transform="translate(-59.639 -119.277)"/>
        <path id="Path_832" d="M128 136.6l20.6-20.6 15.108 15.108-5.494 5.494z" class="cls-1" transform="translate(-106.025 -72.891)"/>
        <path id="Path_833" d="M152 156.48L168.389 140l11.079 11.079-5.311 5.4z" class="cls-3" transform="translate(-125.905 -92.771)"/>
        <path id="Path_834" d="M80.791 253.853a6.867 6.867 0 0 1 6.867-6.867V236H8v10.987a6.867 6.867 0 0 1 0 13.733v10.987h79.658V260.72a6.867 6.867 0 0 1-6.867-6.867z" class="cls-1" transform="translate(-6.627 -172.29)"/>
        <path id="Path_835" d="M8 271.708h79.658V260.72a6.867 6.867 0 0 1 0-13.734V236z" class="cls-2" transform="translate(-6.627 -172.29)"/>
        <g id="Group_205" transform="translate(13.734 63.709)">
            <path id="Path_836" d="M384 260h2.747v5.494H384z" class="cls-4" transform="translate(-331.81 -255.879)"/>
            <path id="Path_837" d="M384 308h2.747v5.494H384z" class="cls-4" transform="translate(-331.81 -295.638)"/>
            <path id="Path_838" d="M384 356h2.747v5.494H384z" class="cls-4" transform="translate(-331.81 -335.398)"/>
            <path id="Path_839" d="M384 404h2.747v5.494H384z" class="cls-4" transform="translate(-331.81 -375.157)"/>
            <path id="Path_840" d="M80 236h2.747v5.494H80z" class="cls-4" transform="translate(-80 -235.999)"/>
            <path id="Path_841" d="M80 284h2.747v5.494H80z" class="cls-4" transform="translate(-80 -275.759)"/>
            <path id="Path_842" d="M80 332h2.747v5.494H80z" class="cls-4" transform="translate(-80 -315.518)"/>
            <path id="Path_843" d="M80 380h2.747v5.494H80z" class="cls-4" transform="translate(-80 -355.278)"/>
            <path id="Path_844" d="M80 428h2.747v2.747H80z" class="cls-4" transform="translate(-80 -395.037)"/>
        </g>
        <path id="Path_845" d="M166.456 288.6v-16.481a4.12 4.12 0 0 1-4.12-4.12H132.12a4.12 4.12 0 0 1-4.12 4.12V288.6a4.12 4.12 0 0 1 4.12 4.12h30.215a4.12 4.12 0 0 1 4.121-4.12z" class="cls-1" transform="translate(-106.025 -198.796)"/>
        <path id="Path_846" d="M176.962 300.023V287.2a3.379 3.379 0 0 1-3.531-3.2h-25.9a3.379 3.379 0 0 1-3.531 3.2v12.819a3.379 3.379 0 0 1 3.531 3.2h25.9a3.379 3.379 0 0 1 3.531-3.196z" class="cls-3" transform="translate(-119.279 -212.049)"/>
        <g id="Group_206" transform="translate(0 28.001)">
            <path id="Path_847" d="M81.031 76.07A1.373 1.373 0 0 0 82.4 74.7V63.709a1.373 1.373 0 0 0-1.373-1.373H63.75l8.643-8.643a1.373 1.373 0 0 0 0-1.942l-7.506-7.5a1.373 1.373 0 0 0-1.942 0 5.494 5.494 0 1 1-7.769-7.771 1.373 1.373 0 0 0 0-1.942L49.045 28.4a1.373 1.373 0 0 0-1.942 0L13.17 62.336H1.373A1.373 1.373 0 0 0 0 63.709V74.7a1.373 1.373 0 0 0 1.373 1.37 5.494 5.494 0 0 1 0 10.987A1.373 1.373 0 0 0 0 88.431v10.987a1.373 1.373 0 0 0 1.373 1.373h79.658a1.373 1.373 0 0 0 1.369-1.373V88.431a1.373 1.373 0 0 0-1.373-1.373 5.494 5.494 0 1 1 0-10.987zM48.069 31.316l4.269 4.269a8.24 8.24 0 0 0 11.494 11.5l5.647 5.642-9.614 9.614h-4.356l3.149-3.149a1.373 1.373 0 0 0 0-1.942L43.551 42.137a1.373 1.373 0 0 0-1.942 0l-20.2 20.2h-4.355zm-22.775 31.02L42.576 45.05l13.17 13.166-4.12 4.12zM79.658 89.69v8.354H68.671v-5.493h-2.747v5.494H16.481v-1.374h-2.747v1.373H2.747V89.69a8.24 8.24 0 0 0 0-16.253v-8.354h10.987V69.2h2.747v-4.12h63.177v8.354a8.24 8.24 0 0 0 0 16.253z" class="cls-5" transform="translate(0 -28.001)"/>
            <path id="Path_848" d="M384.024 260h2.747v5.494h-2.747z" class="cls-5" transform="translate(-318.096 -220.17)"/>
            <path id="Path_849" d="M384.024 308h2.747v5.494h-2.747z" class="cls-5" transform="translate(-318.096 -259.93)"/>
            <path id="Path_850" d="M384.024 356h2.747v5.494h-2.747z" class="cls-5" transform="translate(-318.096 -299.69)"/>
            <path id="Path_851" d="M80.024 284h2.747v5.494h-2.747z" class="cls-5" transform="translate(-66.286 -240.05)"/>
            <path id="Path_852" d="M80.024 332h2.747v5.494h-2.747z" class="cls-5" transform="translate(-66.286 -279.81)"/>
            <path id="Path_853" d="M80.024 380h2.747v5.494h-2.747z" class="cls-5" transform="translate(-66.286 -319.569)"/>
            <path id="Path_854" d="M159.829 264.119a2.747 2.747 0 0 1-2.747-2.747 1.373 1.373 0 0 0-1.373-1.372h-30.215a1.373 1.373 0 0 0-1.373 1.373 2.747 2.747 0 0 1-2.747 2.747 1.373 1.373 0 0 0-1.374 1.373v16.481a1.374 1.374 0 0 0 1.373 1.373 2.747 2.747 0 0 1 2.747 2.747 1.373 1.373 0 0 0 1.373 1.373h30.215a1.373 1.373 0 0 0 1.373-1.373 2.747 2.747 0 0 1 2.747-2.747 1.373 1.373 0 0 0 1.373-1.373v-16.481a1.373 1.373 0 0 0-1.372-1.374zm-1.373 16.654a5.515 5.515 0 0 0-3.943 3.947H126.7a5.517 5.517 0 0 0-3.95-3.947v-14.08a5.517 5.517 0 0 0 3.95-3.947h27.816a5.516 5.516 0 0 0 3.943 3.947z" class="cls-5" transform="translate(-99.399 -220.17)"/>
        </g>
    </g>
</svg>
